<svg width="25" height="25" viewBox="0 0 25 25" fill="none" xmlns="http://www.w3.org/2000/svg">
<path d="M12.5 25C9.16113 25 6.02212 23.6998 3.66113 21.3389C1.30015 18.9779 0 15.8389 0 12.5C0 9.16113 1.3002 6.02212 3.66113 3.66113C6.02207 1.30015 9.16113 0 12.5 0C15.8389 0 18.9779 1.3002 21.3389 3.66113C23.6999 6.02207 25 9.16113 25 12.5C25 15.8389 23.6998 18.9779 21.3389 21.3389C18.9779 23.6999 15.8389 25 12.5 25ZM12.5 1.5625C6.46904 1.5625 1.5625 6.46904 1.5625 12.5C1.5625 18.531 6.46904 23.4375 12.5 23.4375C18.531 23.4375 23.4375 18.531 23.4375 12.5C23.4375 6.46904 18.531 1.5625 12.5 1.5625Z" fill="#0064D9"/>
<path d="M12.5 17.9688C12.0686 17.9688 11.7188 17.6189 11.7188 17.1875C11.7188 15.2155 12.4867 13.3616 13.8811 11.9672C14.7538 11.0945 15.2344 9.93423 15.2344 8.70005C15.2344 7.34907 14.1353 6.25 12.7843 6.25H12.6063C11.2553 6.25 10.1562 7.34907 10.1562 8.70005V8.98438C10.1562 9.41582 9.80645 9.76562 9.375 9.76562C8.94355 9.76562 8.59375 9.41582 8.59375 8.98438V8.70005C8.59375 6.4875 10.3938 4.6875 12.6063 4.6875H12.7843C14.9969 4.6875 16.7969 6.4875 16.7969 8.70005C16.7969 10.3516 16.1538 11.9042 14.9859 13.0721C13.8866 14.1713 13.2812 15.6329 13.2812 17.1875C13.2812 17.6189 12.9314 17.9688 12.5 17.9688Z" fill="#0064D9"/>
<path d="M12.501 21.0938C12.0695 21.0938 11.7195 20.7439 11.7195 20.3125C11.7195 19.8811 12.069 19.5312 12.5005 19.5312H12.501C12.9324 19.5312 13.2822 19.8811 13.2822 20.3125C13.2822 20.7439 12.9324 21.0938 12.501 21.0938Z" fill="#0064D9"/>
</svg>
