<svg width="70" height="70" viewBox="0 0 70 70" fill="none" xmlns="http://www.w3.org/2000/svg">
<path d="M18.0645 22.5806H15.8064C14.5611 22.5806 13.5484 23.5934 13.5484 24.8387V27.0968C13.5484 28.3421 14.5611 29.3548 15.8064 29.3548H18.0645C19.3098 29.3548 20.3226 28.3421 20.3226 27.0968V24.8387C20.3226 23.5934 19.3098 22.5806 18.0645 22.5806ZM15.8064 27.0968V24.8387H18.0645L18.0656 27.0968H15.8064Z" fill="#0064D9"/>
<path d="M27.0968 22.5806H24.8387C23.5934 22.5806 22.5807 23.5934 22.5807 24.8387V27.0968C22.5807 28.3421 23.5934 29.3548 24.8387 29.3548H27.0968C28.3421 29.3548 29.3549 28.3421 29.3549 27.0968V24.8387C29.3549 23.5934 28.3421 22.5806 27.0968 22.5806ZM24.8387 27.0968V24.8387H27.0968L27.0979 27.0968H24.8387Z" fill="#0064D9"/>
<path d="M36.129 22.5806H33.8709C32.6256 22.5806 31.6129 23.5934 31.6129 24.8387V27.0968C31.6129 28.3421 32.6256 29.3548 33.8709 29.3548H36.129C37.3743 29.3548 38.3871 28.3421 38.3871 27.0968V24.8387C38.3871 23.5934 37.3743 22.5806 36.129 22.5806ZM33.8709 27.0968V24.8387H36.129L36.1301 27.0968H33.8709Z" fill="#0064D9"/>
<path d="M47.4194 24.8387C47.4194 23.5934 46.4066 22.5806 45.1613 22.5806H42.9032C41.6579 22.5806 40.6452 23.5934 40.6452 24.8387V27.0968C40.6452 28.3421 41.6579 29.3548 42.9032 29.3548H45.1613C46.4066 29.3548 47.4194 28.3421 47.4194 27.0968V24.8387ZM42.9032 27.0968V24.8387H45.1613L45.1624 27.0968H42.9032Z" fill="#0064D9"/>
<path d="M50.181 37.3981L59.6976 29.785C60.5048 29.1381 60.9677 28.1739 60.9677 27.1408V27.0968C62.2131 27.0968 63.2258 26.084 63.2258 24.8387V22.5806C63.2258 21.3353 62.2131 20.3226 60.9677 20.3226V6.77419C60.9677 5.52887 59.955 4.51613 58.7097 4.51613H57.0997C56.3003 4.51613 55.5518 4.94516 55.1487 5.63613L47.9003 18.0645H33.8303C33.8552 17.6885 33.871 17.3115 33.871 16.9355C33.871 7.59726 26.2737 0 16.9355 0C7.59726 0 0 7.59726 0 16.9355C0 19.3437 0.515968 21.6526 1.48694 23.8237C1.12677 24.3882 0.806129 24.9844 0.53629 25.6132C0.180645 26.4431 0 27.3226 0 28.2258C0 29.129 0.180645 30.0085 0.53629 30.8373C2.50194 35.4234 6.99548 38.3871 11.9858 38.3871H20.2255L23.8384 40.6452H13.5484C12.3031 40.6452 11.2903 41.6579 11.2903 42.9032V54.1936H6.77419C5.52887 54.1936 4.51613 55.2063 4.51613 56.4516V67.7419C4.51613 68.9873 5.52887 70 6.77419 70H18.0645C18.4777 70 18.8605 69.8803 19.1935 69.6861C19.5266 69.8803 19.9094 70 20.3226 70H31.6129C32.8582 70 33.871 68.9873 33.871 67.7419V56.4516C33.871 55.2063 32.8582 54.1936 31.6129 54.1936H27.0968V42.9032C27.0968 42.8219 27.081 42.7463 27.0731 42.6673L34.0144 47.0061C34.4479 47.276 34.9469 47.4194 35.4584 47.4194H40.1777C41.6805 47.4194 42.9032 46.1966 42.9032 44.6939C42.9032 43.9656 42.6198 43.2815 42.105 42.7666L37.7255 38.3871H47.3606C48.3824 38.3871 49.3839 38.036 50.181 37.3981ZM18.0645 42.9032H20.3226V45.1613H18.0645V42.9032ZM13.5484 56.4516V58.7097H11.2903V56.4516H13.5484ZM6.77419 67.7419V56.4516H9.03226V58.7097C9.03226 59.955 10.045 60.9677 11.2903 60.9677H13.5484C14.7937 60.9677 15.8065 59.955 15.8065 58.7097V56.4516H18.0645V67.7419H6.77419ZM31.614 67.7419H20.3226V56.4516H22.5806V58.7097C22.5806 59.955 23.5934 60.9677 24.8387 60.9677H27.0968C28.3421 60.9677 29.3548 59.955 29.3548 58.7097V56.4516H31.6129L31.614 67.7419ZM24.8387 56.4516H27.0968V58.7097H24.8387V56.4516ZM20.3226 54.1936H18.0645H13.5484V42.9032H15.8065V45.1613C15.8065 46.4066 16.8192 47.4194 18.0645 47.4194H20.3226C21.5679 47.4194 22.5806 46.4066 22.5806 45.1613V42.9032H24.8387L24.8398 54.1936H20.3226ZM60.9689 24.8387H51.9355V22.5806H60.9677L60.9689 24.8387ZM31.5677 18.0645H24.8071C24.8274 17.6874 24.8387 17.3103 24.8387 16.9355C24.8387 15.0252 24.5632 13.1261 24.0597 11.2903H30.4805C31.2076 13.029 31.6129 14.936 31.6129 16.9355C31.6129 17.3115 31.5971 17.6885 31.5677 18.0645ZM7.90323 21.1908V25.9677C7.90323 26.5898 7.39629 27.0968 6.77419 27.0968H2.42516C2.47935 26.8969 2.52903 26.696 2.61145 26.504C3.65468 24.0698 5.57403 22.2092 7.90323 21.1908ZM11.3558 18.0882C11.3332 17.7032 11.2903 17.3182 11.2903 16.9355C11.2903 15.0195 11.5963 13.1148 12.1585 11.2903H21.7113C22.2747 13.1148 22.5806 15.0195 22.5806 16.9355C22.5806 17.3103 22.54 17.6874 22.5174 18.0645H11.9847C11.7747 18.0645 11.5658 18.0769 11.3558 18.0882ZM16.9355 3.01113L18.7419 5.41935C19.5831 6.54048 20.2842 7.75758 20.8589 9.03226H13.0132C13.5879 7.75871 14.289 6.54048 15.1302 5.41935L16.9355 3.01113ZM29.2837 9.03226H23.3066C22.6077 7.26758 21.691 5.58758 20.5484 4.06452L19.3561 2.47484C23.5177 3.17032 27.0877 5.61355 29.2837 9.03226ZM14.5148 2.47484L13.3226 4.06452C12.18 5.58758 11.2632 7.26758 10.5644 9.03226H4.58726C6.78323 5.61355 10.3532 3.17032 14.5148 2.47484ZM3.39048 11.2903H9.81129C9.30774 13.1261 9.03226 15.0252 9.03226 16.9355C9.03226 17.4255 9.05484 17.9177 9.08871 18.4089C6.7979 18.9553 4.71935 20.1352 3.0879 21.8016C2.53919 20.2481 2.25806 18.6189 2.25806 16.9355C2.25806 14.936 2.66339 13.029 3.39048 11.2903ZM40.6452 44.6939C40.6452 44.9513 40.4352 45.1613 40.1777 45.1613H35.4584C35.3703 45.1613 35.2845 45.1365 35.21 45.0902L18.2158 34.4682C18.121 34.4095 18.0645 34.3068 18.0645 34.195C18.0645 34.0155 18.209 33.871 18.3885 33.871H29.8821C29.9679 33.871 30.0503 33.906 30.1113 33.9658L40.5085 44.3631C40.5955 44.45 40.6452 44.5708 40.6452 44.6939ZM31.7077 32.3694C31.2268 31.8884 30.5618 31.6129 29.8821 31.6129H18.3885C16.9648 31.6129 15.8065 32.7713 15.8065 34.195C15.8065 34.9548 16.1463 35.6435 16.7074 36.129H11.9858C7.90097 36.129 4.22145 33.7027 2.61145 29.9465C2.52903 29.7545 2.47935 29.5547 2.42516 29.3548H6.77419C8.64161 29.3548 10.1613 27.8352 10.1613 25.9677V20.5044C10.7574 20.396 11.3637 20.3226 11.9858 20.3226H47.9003C48.6997 20.3226 49.4482 19.8935 49.8513 19.2026L57.0997 6.77419H58.7097V20.3226H51.9355C50.6902 20.3226 49.6774 21.3353 49.6774 22.5806V24.8387C49.6774 26.084 50.6902 27.0968 51.9355 27.0968H58.7097V27.1408C58.7097 27.4852 58.555 27.8069 58.2863 28.0226L48.7708 35.6345C48.3723 35.9529 47.871 36.129 47.3606 36.129H35.4674L31.7077 32.3694Z" fill="#0064D9"/>
<path d="M63.2258 29.3548H70V31.6129H63.2258V29.3548Z" fill="#0064D9"/>
<path d="M63.2258 11.2903H70V13.5484H63.2258V11.2903Z" fill="#0064D9"/>
<path d="M65.4838 15.8065H70V18.0645H65.4838V15.8065Z" fill="#0064D9"/>
<path d="M47.4193 40.6452H51.9355V42.9032H47.4193V40.6452Z" fill="#0064D9"/>
<path d="M54.1935 40.6452H63.2258V42.9032H54.1935V40.6452Z" fill="#0064D9"/>
<path d="M47.4193 45.1613H56.4516V47.4194H47.4193V45.1613Z" fill="#0064D9"/>
<path d="M42.9032 13.5484H47.4194V15.8065H42.9032V13.5484Z" fill="#0064D9"/>
<path d="M36.129 9.03227H47.4194V11.2903H36.129V9.03227Z" fill="#0064D9"/>
</svg>
