<svg width="70" height="70" viewBox="0 0 70 70" fill="none" xmlns="http://www.w3.org/2000/svg">
<path d="M69.7839 39.0666C70.7349 37.645 68.2431 35.2692 67.3534 35.1628C64.3296 34.7985 63.311 32.21 61.6508 30.6337C59.0688 28.187 56.3223 25.6242 57.0476 21.0564C57.6762 17.1043 55.8839 13.7099 51.3064 13.294C48.6437 13.0652 46.5129 13.6196 43.5376 11.7983C37.7287 8.2298 30.5756 11.2245 26.2012 14.8865C23.2161 17.3848 20.115 21.4819 18.0133 25.3502C16.7593 27.6615 15.5053 29.0831 13.381 30.4886C9.73835 32.9063 5.77335 33.0868 1.76644 33.1062C1.30547 35.6367 2.58845 37.4612 3.26541 39.4502C3.89078 41.2908 5.42843 43.7988 3.93591 45.0076C0.941206 47.435 -2.04705 48.1925 1.87927 53.2052C4.4678 56.4964 3.34922 57.8246 7.64625 54.7267C8.53596 54.0916 9.36119 53.9369 10.3444 53.8402C22.1201 52.6701 33.0706 57.5312 44.553 58.5563C47.5638 58.8239 50.9969 56.5996 53.6112 59.8103C53.9368 59.5008 54.5654 59.1623 54.5429 58.898C53.7273 52.3703 58.3306 51.9222 63.6785 51.5611C61.3317 49.4465 62.6179 46.8708 61.5348 44.8754C59.894 41.8614 58.6304 39.5436 63.946 41.7292C66.454 42.7575 68.646 40.746 69.7839 39.0666Z" fill="#0064D9"/>
</svg>
