<svg width="20" height="20" viewBox="0 0 20 20" fill="none" xmlns="http://www.w3.org/2000/svg">
<path d="M19.235 8.01288L18.7991 7.55134L17.2692 3.42741C17.0085 2.73083 16.3419 2.26929 15.5983 2.26501H4.67094C3.92735 2.26501 3.26068 2.73083 3 3.42741L1.49145 7.50006L0.863248 8.08125C0.316239 8.54707 0 9.23083 0 9.94878V15.9573C0.0042735 16.9402 0.803419 17.7351 1.78632 17.7351H2.91453C3.89744 17.7351 4.69658 16.9402 4.70085 15.9573V15.0855H15.2991V15.9573C15.3034 16.9402 16.1026 17.7351 17.0855 17.7351H18.2137C19.1966 17.7351 19.9957 16.9402 20 15.9573V9.79066C19.9957 9.11972 19.7222 8.47869 19.235 8.01288ZM3.80342 3.71801C3.94017 3.35476 4.28633 3.11972 4.67094 3.11972H15.6026C15.9872 3.11972 16.3333 3.35903 16.4701 3.71801L17.8034 7.30775H16.8077C16.5726 5.70519 15.0812 4.59835 13.4786 4.83766C12.2009 5.0257 11.1966 6.02997 11.0085 7.30775H2.47009L3.80342 3.71801ZM15.9359 7.30775H11.8718C12.1068 6.18382 13.2094 5.46587 14.3333 5.70091C15.1368 5.87185 15.765 6.50006 15.9359 7.30775ZM3.84615 15.9573C3.84188 16.4701 3.42735 16.8804 2.91453 16.8804H1.78632C1.2735 16.8804 0.858974 16.4701 0.854701 15.9573V14.8377C1.11111 15.0043 1.44872 15.0855 1.78632 15.0855H3.84615V15.9573ZM19.1453 15.9573C19.141 16.4701 18.7265 16.8804 18.2137 16.8804H17.0855C16.5726 16.8804 16.1581 16.4659 16.1538 15.9573V15.0855H18.2137C18.5513 15.0855 18.8889 15.0043 19.1453 14.8377V15.9573ZM18.2137 14.2308H1.78632C1.27778 14.2351 0.858974 13.8291 0.854701 13.3163V9.94878C0.854701 9.47869 1.0641 9.02997 1.42308 8.72655C1.42735 8.72228 1.4359 8.71373 1.44017 8.70946L2.02137 8.16245H18.2051L18.6154 8.60262C18.6197 8.61117 18.6325 8.61544 18.6368 8.62399C18.9573 8.92741 19.141 9.35048 19.141 9.79066V13.3163H19.1453C19.141 13.8248 18.7222 14.2351 18.2137 14.2308Z" fill="#0064D9"/>
<path d="M5.64102 9.87183H2.4359C2.20085 9.87183 2.00854 10.0641 2.00854 10.2992V12.5214C2.00854 12.7564 2.20085 12.9487 2.4359 12.9487H5.64102C5.87607 12.9487 6.06837 12.7564 6.06837 12.5214V10.2992C6.06837 10.0641 5.87607 9.87183 5.64102 9.87183ZM5.21367 12.094H2.86325V10.7265H5.21367V12.094Z" fill="#0064D9"/>
<path d="M17.5641 9.87183H14.359C14.1239 9.87183 13.9316 10.0641 13.9316 10.2992V12.5214C13.9316 12.7564 14.1239 12.9487 14.359 12.9487H17.5641C17.7992 12.9487 17.9915 12.7564 17.9915 12.5214V10.2992C17.9915 10.0641 17.7992 9.87183 17.5641 9.87183ZM17.1368 12.094H14.7863V10.7265H17.1368V12.094Z" fill="#0064D9"/>
<path d="M12.0641 11.6666H7.9359C7.70085 11.6666 7.50854 11.8589 7.50854 12.094C7.50854 12.329 7.70085 12.5213 7.9359 12.5213H12.0641C12.2992 12.5213 12.4915 12.329 12.4915 12.094C12.4915 11.8589 12.2992 11.6666 12.0641 11.6666Z" fill="#0064D9"/>
<path d="M12.0641 10.3419H7.9359C7.70085 10.3419 7.50854 10.5342 7.50854 10.7693C7.50854 11.0043 7.70085 11.1966 7.9359 11.1966H12.0641C12.2992 11.1966 12.4915 11.0043 12.4915 10.7693C12.4915 10.5342 12.2992 10.3419 12.0641 10.3419Z" fill="#0064D9"/>
</svg>
