<svg width="25" height="25" viewBox="0 0 25 25" fill="none" xmlns="http://www.w3.org/2000/svg">
<path d="M4.68753 13.5416C3.25213 13.5416 2.08337 14.7104 2.08337 16.1458C2.08337 17.5812 3.25213 18.75 4.68753 18.75C6.12293 18.75 7.29168 17.5812 7.29168 16.1458C7.29168 14.7104 6.12293 13.5416 4.68753 13.5416ZM4.68753 17.7083C3.82605 17.7083 3.12503 17.0073 3.12503 16.1458C3.12503 15.2843 3.82605 14.5833 4.68753 14.5833C5.54901 14.5833 6.25003 15.2843 6.25003 16.1458C6.25003 17.0072 5.54901 17.7083 4.68753 17.7083Z" fill="#0064D9"/>
<path d="M20.3125 13.5416C18.8771 13.5416 17.7083 14.7104 17.7083 16.1458C17.7083 17.5812 18.8771 18.75 20.3125 18.75C21.7479 18.75 22.9166 17.5812 22.9166 16.1458C22.9166 14.7104 21.7479 13.5416 20.3125 13.5416ZM20.3125 17.7083C19.451 17.7083 18.75 17.0073 18.75 16.1458C18.75 15.2843 19.451 14.5833 20.3125 14.5833C21.174 14.5833 21.875 15.2843 21.875 16.1458C21.875 17.0072 21.174 17.7083 20.3125 17.7083Z" fill="#0064D9"/>
<path d="M21.875 10.4166H20.9937C20.6719 10.4166 20.3563 10.3063 20.1042 10.1042L16 6.8208C15.5396 6.45313 14.9615 6.25 14.3729 6.25H6.84375C5.97085 6.25 5.16147 6.68335 4.6771 7.40938L3.79063 8.74062C3.525 9.1375 3.08125 9.375 2.60415 9.375C1.16875 9.375 0 10.5437 0 11.9791V14.0625C0 15.4979 1.16875 16.6667 2.60415 16.6667C2.89165 16.6667 3.125 16.4333 3.125 16.1458C3.125 15.8583 2.89165 15.625 2.60415 15.625C1.74268 15.625 1.04165 14.924 1.04165 14.0625V11.9791C1.04165 11.1177 1.74268 10.4166 2.60415 10.4166C3.43125 10.4166 4.1979 10.0063 4.65728 9.31768L5.54375 7.98745C5.83438 7.55205 6.32085 7.2916 6.84375 7.2916H14.3729C14.7271 7.2916 15.0729 7.41348 15.35 7.63433L19.4541 10.9166C19.8885 11.2656 20.4364 11.4583 20.9948 11.4583H21.875C23.4031 11.4583 23.9583 13.0155 23.9583 14.0624C23.9583 15.0884 23.1729 15.6249 22.3958 15.6249C22.1083 15.6249 21.875 15.8583 21.875 16.1458C21.875 16.4333 22.1083 16.6666 22.3958 16.6666C23.8802 16.6667 25 15.5469 25 14.0625C25 12.2948 23.9052 10.4166 21.875 10.4166Z" fill="#0064D9"/>
<path d="M18.2292 15.625H6.77085C6.48335 15.625 6.25 15.8583 6.25 16.1458C6.25 16.4333 6.48335 16.6667 6.77085 16.6667H18.2292C18.5167 16.6667 18.75 16.4333 18.75 16.1458C18.75 15.8583 18.5167 15.625 18.2292 15.625Z" fill="#0064D9"/>
<path d="M17.1875 10.4166H12.5V8.8541C12.5 8.5666 12.2666 8.33325 11.9791 8.33325C11.6916 8.33325 11.4583 8.5666 11.4583 8.8541V10.9375C11.4583 11.225 11.6916 11.4583 11.9791 11.4583H17.1875C17.475 11.4583 17.7083 11.225 17.7083 10.9375C17.7083 10.65 17.475 10.4166 17.1875 10.4166Z" fill="#0064D9"/>
<path d="M9.89584 10.4167H6.57187L7.23749 9.08751C7.36562 8.83023 7.26147 8.51774 7.00414 8.38854C6.74579 8.26041 6.43437 8.36354 6.30517 8.62189L5.26352 10.7052C5.18227 10.8656 5.19164 11.0584 5.28642 11.2115C5.38119 11.3646 5.54892 11.4584 5.72914 11.4584H9.89579C10.1833 11.4584 10.4166 11.225 10.4166 10.9375C10.4166 10.65 10.1833 10.4167 9.89584 10.4167Z" fill="#0064D9"/>
<path d="M14.0625 12.5H13.0208C12.7333 12.5 12.5 12.7333 12.5 13.0208C12.5 13.3083 12.7333 13.5417 13.0208 13.5417H14.0625C14.35 13.5417 14.5833 13.3083 14.5833 13.0208C14.5833 12.7333 14.35 12.5 14.0625 12.5Z" fill="#0064D9"/>
</svg>
