<svg width="30" height="30" viewBox="0 0 30 30" fill="none" xmlns="http://www.w3.org/2000/svg">
<path d="M23.3074 18.5156H11.2881C11.0887 18.5159 10.8951 18.4484 10.7391 18.3242C10.5831 18.1999 10.474 18.0263 10.4297 17.8318L8.40588 9.01464C8.37628 8.88584 8.3761 8.75203 8.40536 8.62315C8.43463 8.49427 8.49258 8.37366 8.5749 8.27027C8.65722 8.16689 8.7618 8.0834 8.88085 8.02602C8.9999 7.96864 9.13036 7.93885 9.26252 7.93886H25.333C25.4653 7.93858 25.596 7.96818 25.7153 8.02545C25.8345 8.08271 25.9393 8.16617 26.0219 8.26958C26.1044 8.373 26.1625 8.49371 26.1918 8.62272C26.2212 8.75173 26.2211 8.8857 26.1914 9.01464L24.1641 17.8318C24.1199 18.026 24.011 18.1994 23.8554 18.3236C23.6998 18.4478 23.5066 18.5155 23.3074 18.5156ZM11.9877 16.7578H22.6078L24.2291 9.69843H10.3658L11.9877 16.7578Z" fill="black"/>
<path d="M13.0078 26.3672C12.3417 26.3672 11.6905 26.1697 11.1367 25.7996C10.5828 25.4295 10.1511 24.9035 9.8962 24.2881C9.64129 23.6727 9.57459 22.9955 9.70455 22.3422C9.8345 21.6888 10.1553 21.0887 10.6263 20.6177C11.0973 20.1467 11.6974 19.8259 12.3507 19.696C13.0041 19.566 13.6812 19.6327 14.2967 19.8876C14.9121 20.1425 15.4381 20.5742 15.8082 21.1281C16.1782 21.6819 16.3758 22.3331 16.3758 22.9992C16.3748 23.8922 16.0197 24.7483 15.3883 25.3797C14.7569 26.0111 13.9008 26.3663 13.0078 26.3672ZM13.0078 21.3897C12.6893 21.3897 12.378 21.4841 12.1132 21.6611C11.8484 21.838 11.642 22.0895 11.5202 22.3838C11.3983 22.678 11.3665 23.0018 11.4286 23.3142C11.4908 23.6265 11.6442 23.9134 11.8695 24.1386C12.0947 24.3637 12.3817 24.517 12.694 24.5791C13.0064 24.6412 13.3302 24.6092 13.6244 24.4872C13.9186 24.3653 14.17 24.1588 14.3469 23.8939C14.5237 23.6291 14.6181 23.3177 14.618 22.9992C14.6175 22.5724 14.4477 22.1632 14.1458 21.8614C13.8439 21.5596 13.4346 21.39 13.0078 21.3897Z" fill="black"/>
<path d="M21.5871 26.3672C20.921 26.3672 20.2698 26.1697 19.7159 25.7996C19.1621 25.4295 18.7304 24.9035 18.4755 24.2881C18.2206 23.6727 18.1539 22.9955 18.2838 22.3422C18.4138 21.6888 18.7346 21.0887 19.2056 20.6177C19.6766 20.1467 20.2767 19.8259 20.93 19.696C21.5834 19.566 22.2605 19.6327 22.876 19.8876C23.4914 20.1425 24.0174 20.5742 24.3875 21.1281C24.7575 21.6819 24.9551 22.3331 24.9551 22.9992C24.9541 23.8922 24.599 24.7483 23.9676 25.3797C23.3362 26.0111 22.48 26.3663 21.5871 26.3672ZM21.5871 21.3897C21.2686 21.3897 20.9573 21.4841 20.6925 21.6611C20.4277 21.838 20.2213 22.0895 20.0994 22.3838C19.9776 22.678 19.9457 23.0018 20.0079 23.3142C20.0701 23.6265 20.2235 23.9134 20.4487 24.1386C20.674 24.3637 20.9609 24.517 21.2733 24.5791C21.5857 24.6412 21.9095 24.6092 22.2037 24.4872C22.4979 24.3653 22.7493 24.1588 22.9262 23.8939C23.103 23.6291 23.1974 23.3177 23.1972 22.9992C23.1968 22.5724 23.027 22.1632 22.7251 21.8614C22.4232 21.5596 22.0139 21.39 21.5871 21.3897Z" fill="black"/>
<path d="M9.2625 9.69668C9.07801 9.69666 8.8982 9.63859 8.74856 9.53069C8.59891 9.4228 8.48701 9.27054 8.42871 9.09551L6.92226 4.57031H4.14258C3.90948 4.57031 3.68592 4.47771 3.5211 4.31289C3.35627 4.14806 3.26367 3.92451 3.26367 3.69141C3.26367 3.45831 3.35627 3.23475 3.5211 3.06993C3.68592 2.9051 3.90948 2.8125 4.14258 2.8125H7.55859C7.74308 2.81252 7.92289 2.87059 8.07253 2.97849C8.22218 3.08638 8.33408 3.23864 8.39238 3.41367L10.0992 8.54004C10.1432 8.67214 10.1552 8.81281 10.1342 8.95046C10.1132 9.0881 10.0597 9.21878 9.97831 9.33173C9.89689 9.44468 9.7898 9.53667 9.66585 9.60012C9.54191 9.66357 9.40467 9.69667 9.26543 9.69668H9.2625Z" fill="black"/>
</svg>
