<svg width="70" height="70" viewBox="0 0 70 70" fill="none" xmlns="http://www.w3.org/2000/svg">
<g clip-path="url(#clip0)">
<path d="M18.8672 49.834C13.6968 50.0486 13.7008 57.4142 18.8672 57.627H29.5313C34.7017 57.4123 34.6978 50.0467 29.5313 49.834H18.8672ZM31.377 53.7305C31.377 54.7482 30.549 55.5762 29.5313 55.5762H18.8672C16.4181 55.4746 16.42 51.9854 18.8672 51.8848H29.5313C30.549 51.8848 31.377 52.7127 31.377 53.7305Z" fill="#0064D9"/>
<path d="M63.2145 10.8691H57.9949C56.6371 10.9162 56.6382 12.8734 57.9949 12.9199H63.2145C64.129 12.9199 64.873 13.6638 64.873 14.5785V42.0231C64.873 42.9376 64.1292 43.6816 63.2145 43.6816H16.0824C15.1679 43.6816 14.4238 42.9378 14.4238 42.0231V40.65H25.4297C31.5072 40.3977 31.5026 31.7399 25.4297 31.4899H14.4238V14.5785C14.4238 13.6639 15.1677 12.9199 16.0824 12.9199H53.1748C54.5326 12.8729 54.5315 10.9156 53.1748 10.8691H45.3223V6.49414C45.3223 2.91334 42.4089 0 38.8281 0H9.57031C5.98951 0 3.07617 2.91334 3.07617 6.49414V12.3784C3.1232 13.7361 5.08047 13.735 5.12695 12.3784V6.49414C5.12695 4.044 7.12018 2.05078 9.57031 2.05078H38.8281C41.2783 2.05078 43.2715 4.044 43.2715 6.49414V10.8691H41.7676V6.49414C41.7676 4.87334 40.4489 3.55469 38.8281 3.55469H33.3457C32.5899 3.55469 31.9163 4.03443 31.6691 4.74975L31.0122 6.66094H17.386L16.7285 4.74838C16.4819 4.03443 15.8084 3.55482 15.0525 3.55482H9.57031C7.94951 3.55482 6.63086 4.87348 6.63086 6.49428V63.506C6.63086 65.1268 7.94951 66.4454 9.57031 66.4454H38.8281C40.4489 66.4454 41.7676 65.1268 41.7676 63.506V60.2999C41.7205 58.9422 39.7633 58.9433 39.7168 60.2999V63.506C39.7168 63.996 39.3181 64.3947 38.8281 64.3947H9.57031C9.08031 64.3947 8.68164 63.996 8.68164 63.506V6.49428C8.68164 6.00428 9.08031 5.60561 9.57031 5.60561H14.8548L15.5122 7.51803C15.7587 8.23211 16.4322 8.71172 17.1883 8.71172H31.2102C31.9661 8.71172 32.6397 8.23197 32.8867 7.51666L33.5437 5.60547H38.8281C39.3181 5.60547 39.7168 6.00414 39.7168 6.49414V10.8691H16.0824C14.0371 10.8691 12.373 12.5331 12.373 14.5785V42.0231C12.373 44.0684 14.0371 45.7324 16.0824 45.7324H39.7168V55.5178C39.7638 56.8755 41.7211 56.8745 41.7676 55.5178V45.7324H43.2715V63.5059C43.2715 65.956 41.2783 67.9492 38.8281 67.9492H9.57031C7.12018 67.9492 5.12695 65.956 5.12695 63.5059V17.2266C5.07992 15.8688 3.12266 15.8699 3.07617 17.2266V63.5059C3.07617 67.0867 5.98951 70 9.57031 70H38.8281C42.4089 70 45.3223 67.0867 45.3223 63.5059V45.7324H63.2145C65.2598 45.7324 66.9238 44.0684 66.9238 42.0231V14.5785C66.9238 12.5331 65.2598 10.8691 63.2145 10.8691ZM25.4297 33.5407C28.786 33.68 28.7834 38.4612 25.4297 38.5993H14.4238V33.5407H25.4297Z" fill="#0064D9"/>
<path d="M47.466 40.9821C47.995 41.1839 48.5877 40.9181 48.7893 40.3889L49.2773 39.1076H52.6326L53.1151 40.386C53.3145 40.9211 53.9205 41.1821 54.4365 40.9832C54.9663 40.7833 55.2337 40.1917 55.0337 39.6618L52.0914 31.8651C52.0879 31.8557 52.0841 31.8463 52.0803 31.8368C51.8937 31.3836 51.4566 31.0909 50.9664 31.0909H50.9648C50.474 31.0915 50.0369 31.3854 49.8512 31.8399C49.8481 31.8475 49.8451 31.855 49.8422 31.8627L46.8728 39.6589C46.6712 40.188 46.9369 40.7804 47.466 40.9821ZM50.9626 34.6825L51.8587 37.0568H50.0584L50.9626 34.6825Z" fill="#0064D9"/>
<path d="M56.8293 36.2886L56.8202 40.0213C56.8188 40.5877 57.2768 41.0479 57.843 41.0492H57.8456C58.4108 41.0492 58.8696 40.5918 58.871 40.0265L58.8801 36.2899L61.2199 32.6956C61.5289 32.2209 61.3946 31.5858 60.9201 31.2769C60.4455 30.9676 59.8102 31.102 59.5014 31.5767L57.8542 34.1069L56.1883 31.5555C55.8783 31.0812 55.2434 30.9482 54.769 31.2574C54.2949 31.5671 54.1614 32.2024 54.4709 32.6767L56.8293 36.2886Z" fill="#0064D9"/>
<path d="M41.0733 40.0239C41.1203 41.3816 43.0776 41.3805 43.1241 40.0239V37.6089C43.5571 37.6067 44.0261 37.6048 44.3004 37.6048C48.6796 37.4251 48.6776 31.2695 44.3004 31.0908H42.0987C41.5466 31.0799 41.0607 31.5676 41.0733 32.1194V40.0239ZM44.3004 33.1416C44.9778 33.1416 45.5503 33.6939 45.5503 34.3477C45.5503 35.0015 44.9778 35.5539 44.3004 35.5539C44.0279 35.5539 43.5644 35.5558 43.1338 35.558C43.1283 34.5406 43.1302 34.1895 43.1271 33.1415H44.3004V33.1416Z" fill="#0064D9"/>
<path d="M20.3711 16.2012C19.3534 16.2012 18.5254 17.0291 18.5254 18.0469V23.5156C18.5254 24.5334 19.3534 25.3613 20.3711 25.3613H28.8477C29.8654 25.3613 30.6934 24.5334 30.6934 23.5156V18.0469C30.6934 17.0291 29.8654 16.2012 28.8477 16.2012H20.3711ZM28.6426 23.3105H20.5762V18.252H28.6426V23.3105Z" fill="#0064D9"/>
<path d="M37.4478 19.6969V21.3375C37.4948 22.6953 39.4521 22.6942 39.4986 21.3375V19.6969C39.4517 18.3392 37.4943 18.3403 37.4478 19.6969Z" fill="#0064D9"/>
<path d="M55.3856 22.3629C55.952 22.3629 56.411 21.904 56.411 21.3375V19.6969C56.364 18.3392 54.4067 18.3403 54.3602 19.6969V21.3375C54.3602 21.904 54.8193 22.3629 55.3856 22.3629Z" fill="#0064D9"/>
<path d="M60.0663 21.3376V19.6969C60.0193 18.3392 58.062 18.3403 58.0155 19.6969V21.3376C58.0624 22.6953 60.0198 22.6943 60.0663 21.3376Z" fill="#0064D9"/>
<path d="M44.8058 21.3376V19.6969C44.7588 18.3392 42.8016 18.3403 42.7551 19.6969V21.3376C42.802 22.6953 44.7594 22.6943 44.8058 21.3376Z" fill="#0064D9"/>
<path d="M47.6547 22.3629C48.2211 22.3629 48.6801 21.904 48.6801 21.3375V19.6969C48.633 18.3392 46.6758 18.3403 46.6293 19.6969V21.3375C46.6293 21.904 47.0882 22.3629 47.6547 22.3629Z" fill="#0064D9"/>
</g>
<defs>
<clipPath id="clip0">
<rect width="70" height="70" fill="white"/>
</clipPath>
</defs>
</svg>
