<svg width="10" height="10" viewBox="0 0 10 10" fill="none" xmlns="http://www.w3.org/2000/svg">
<g clip-path="url(#clip0)">
<path d="M5.91616 5.00827L9.80996 1.11435C10.0634 0.861071 10.0634 0.451547 9.80996 0.198263C9.55667 -0.05502 9.14715 -0.05502 8.89387 0.198263L4.99995 4.09218L1.10614 0.198263C0.852741 -0.05502 0.443335 -0.05502 0.190052 0.198263C-0.0633505 0.451547 -0.0633505 0.861071 0.190052 1.11435L4.08385 5.00827L0.190052 8.90219C-0.0633505 9.15548 -0.0633505 9.565 0.190052 9.81828C0.316278 9.94463 0.482247 10.0081 0.648097 10.0081C0.813947 10.0081 0.979798 9.94463 1.10614 9.81828L4.99995 5.92436L8.89387 9.81828C9.02021 9.94463 9.18606 10.0081 9.35191 10.0081C9.51776 10.0081 9.68361 9.94463 9.80996 9.81828C10.0634 9.565 10.0634 9.15548 9.80996 8.90219L5.91616 5.00827Z" fill="white"/>
</g>
<defs>
<clipPath id="clip0">
<rect width="10" height="10" fill="white"/>
</clipPath>
</defs>
</svg>
