<svg width="70" height="70" viewBox="0 0 70 70" fill="none" xmlns="http://www.w3.org/2000/svg">
<g clip-path="url(#clip0)">
<path d="M69.5117 25.1466L61.6912 4.81324C60.2092 0.969418 55.8918 -0.945209 52.0479 0.536726C51.9921 0.558288 51.9365 0.580432 51.8811 0.603305L12.7995 16.8038C9.07824 18.3303 7.24927 22.5426 8.67483 26.3038L9.74942 29.1721H7.28438C3.26326 29.1766 0.00451632 32.4353 0 36.4565V62.6802C0.00451632 66.7013 3.26326 69.9601 7.28438 69.9646H56.8182C60.8393 69.9601 64.0981 66.7013 64.1026 62.6802V36.4565C64.1003 36.0611 64.0651 35.6665 63.9977 35.277L65.3508 34.7292C69.1054 33.1903 70.9506 28.9406 69.5117 25.1466ZM7.28438 31.5032H56.8182C59.4342 31.5106 61.5921 33.5536 61.7424 36.1652H2.36014C2.51049 33.5535 4.66842 31.5105 7.28438 31.5032ZM18.9988 24.4822L26.7891 20.586L28.3905 24.5918L20.6002 28.4869L18.9988 24.4822ZM61.7716 62.6804C61.7684 65.4148 59.5526 67.6305 56.8182 67.6338H7.28438C4.54997 67.6305 2.33421 65.4148 2.331 62.6804V47.8202H61.7716V62.6804ZM61.7716 45.4892H2.331V38.4962H61.7716V45.4892ZM64.4767 32.5755L63.2588 33.0685C62.0008 30.6757 59.5216 29.176 56.8182 29.1722H24.4429L30.3928 26.1967C30.9353 25.9259 31.1796 25.2842 30.9546 24.7212L28.4825 18.544C28.2435 17.9464 27.5653 17.6556 26.9677 17.8945C26.9375 17.9066 26.9079 17.9199 26.8789 17.9345L16.9967 22.8785C16.4546 23.1498 16.2108 23.7912 16.436 24.354L18.3638 29.1722H12.2378L10.8578 25.4916C9.87952 22.9074 11.1361 20.014 13.6923 18.9648L52.7727 2.76429C55.3854 1.68096 58.3816 2.92061 59.4651 5.53323C59.482 5.57388 59.4983 5.61481 59.514 5.6559L67.3345 25.9892C68.3239 28.5963 67.0565 31.5171 64.4767 32.5755Z" fill="#0064D9"/>
<path d="M41.9253 64.3564C44.0972 65.6182 46.7791 65.6182 48.9511 64.3564C52.2905 66.2965 56.5705 65.162 58.5106 61.8226C60.4508 58.4831 59.3163 54.2031 55.9768 52.263C54.905 51.6403 53.6871 51.3137 52.4476 51.3166C51.2188 51.3172 50.0122 51.6437 48.9511 52.263C45.6116 50.3229 41.3316 51.4572 39.3915 54.7966C37.4513 58.1362 38.5858 62.4161 41.9253 64.3564ZM50.8998 53.9321C51.3955 53.7494 51.9191 53.6533 52.4476 53.6477C55.0223 53.6477 57.1096 55.735 57.1096 58.3098C57.1096 60.8845 55.0223 62.9718 52.4476 62.9718C51.9191 62.9662 51.3955 62.8701 50.8998 62.6874C52.9633 60.1336 52.9633 56.4857 50.8998 53.9321ZM48.9511 55.2585C50.5051 56.9959 50.5051 59.6236 48.9511 61.361C47.397 59.6236 47.397 56.9958 48.9511 55.2585ZM45.4545 53.6477C45.983 53.6531 46.5066 53.7494 47.0023 53.9321C44.9388 56.4857 44.9388 60.1338 47.0023 62.6874C46.5066 62.8701 45.983 62.9662 45.4545 62.9718C42.8798 62.9718 40.7925 60.8845 40.7925 58.3098C40.7925 55.7349 42.8798 53.6477 45.4545 53.6477Z" fill="#0064D9"/>
<path d="M49.1636 24.0886L50.1104 26.2187L61.2294 21.2761L60.2825 19.1461L49.1636 24.0886Z" fill="#0064D9"/>
<path d="M57.8012 14.2116L41.7408 21.6245L42.7173 23.7399L58.7777 16.3271L57.8012 14.2116Z" fill="#0064D9"/>
</g>
<defs>
<clipPath id="clip0">
<rect width="70" height="70" fill="white"/>
</clipPath>
</defs>
</svg>
