<svg width="10" height="10" viewBox="0 0 10 10" fill="none" xmlns="http://www.w3.org/2000/svg">
<g clip-path="url(#clip0)">
<path d="M5.91616 5.0083L9.80996 1.11438C10.0634 0.861101 10.0634 0.451577 9.80996 0.198294C9.55667 -0.0549895 9.14715 -0.0549895 8.89387 0.198294L4.99995 4.09221L1.10614 0.198294C0.852741 -0.0549895 0.443335 -0.0549895 0.190052 0.198294C-0.0633505 0.451577 -0.0633505 0.861101 0.190052 1.11438L4.08385 5.0083L0.190052 8.90222C-0.0633505 9.15551 -0.0633505 9.56503 0.190052 9.81831C0.316278 9.94466 0.482247 10.0081 0.648097 10.0081C0.813947 10.0081 0.979798 9.94466 1.10614 9.81831L4.99995 5.92439L8.89387 9.81831C9.02021 9.94466 9.18606 10.0081 9.35191 10.0081C9.51776 10.0081 9.68361 9.94466 9.80996 9.81831C10.0634 9.56503 10.0634 9.15551 9.80996 8.90222L5.91616 5.0083Z" fill="black"/>
</g>
<defs>
<clipPath id="clip0">
<rect width="10" height="10" fill="white"/>
</clipPath>
</defs>
</svg>
