<svg width="70" height="70" viewBox="0 0 70 70" fill="none" xmlns="http://www.w3.org/2000/svg">
<path d="M16.3334 46.0834C12.4728 46.0834 9.33337 49.2228 9.33337 53.0834C9.33337 56.9439 12.4728 60.0834 16.3334 60.0834C20.1939 60.0834 23.3334 56.9439 23.3334 53.0834C23.3334 49.2228 20.1938 46.0834 16.3334 46.0834ZM16.3334 57.75C13.7596 57.75 11.6668 55.657 11.6668 53.0834C11.6668 50.5096 13.7598 48.4168 16.3334 48.4168C18.907 48.4168 21 50.5098 21 53.0834C21 55.657 18.907 57.75 16.3334 57.75Z" fill="#0064D9"/>
<path d="M56 46.0834C52.1395 46.0834 49 49.2228 49 53.0834C49 56.9439 52.1395 60.0834 56 60.0834C59.8605 60.0834 63 56.9439 63 53.0834C63 49.2228 59.8605 46.0834 56 46.0834ZM56 57.75C53.4263 57.75 51.3334 55.657 51.3334 53.0834C51.3334 50.5096 53.4264 48.4168 56 48.4168C58.5737 48.4168 60.6666 50.5098 60.6666 53.0834C60.6666 55.657 58.5737 57.75 56 57.75Z" fill="#0064D9"/>
<path d="M69.8145 39.6189L59.3145 23.2855C59.0998 22.9518 58.73 22.75 58.3332 22.75H45.5C44.8548 22.75 44.3334 23.2727 44.3334 23.9166V53.0832C44.3334 53.7284 44.8548 54.2499 45.5 54.2499H50.1666V51.9165H46.6666V25.0834H57.6963L67.6666 40.593V51.9168H61.8332V54.25H68.8332C69.4784 54.25 69.9999 53.7286 69.9999 53.0834V40.25C70 40.0271 69.9359 39.8066 69.8145 39.6189Z" fill="#0064D9"/>
<path d="M51.3334 37.9166V29.75H60.6667V27.4166H50.1667C49.5216 27.4166 49.0001 27.9393 49.0001 28.5832V39.0832C49.0001 39.7284 49.5216 40.2499 50.1667 40.2499H67.6667V37.9165H51.3334V37.9166Z" fill="#0064D9"/>
<path d="M45.5 14.5834H1.16662C0.522676 14.5834 0 15.1061 0 15.75V53.0834C0 53.7286 0.522676 54.25 1.16662 54.25H10.5V51.9166H2.33338V16.9166H44.3334V51.9166H22.1666V54.25H45.5C46.1452 54.25 46.6666 53.7286 46.6666 53.0834V15.75C46.6666 15.1061 46.1452 14.5834 45.5 14.5834Z" fill="#0064D9"/>
<path d="M8.16663 47.25H1.16663V49.5834H8.16663V47.25Z" fill="#0064D9"/>
<path d="M44.3334 47.25H24.5001V49.5834H44.3334V47.25Z" fill="#0064D9"/>
<path d="M68.8332 47.25H64.1666V49.5834H68.8332V47.25Z" fill="#0064D9"/>
<path d="M45.4999 19.25H4.66656V21.5834H45.4999V19.25Z" fill="#0064D9"/>
<path d="M17.5 51.9166H15.1666V54.25H17.5V51.9166Z" fill="#0064D9"/>
<path d="M57.1668 51.9166H54.8334V54.25H57.1668V51.9166Z" fill="#0064D9"/>
<path d="M20.9999 9.91663H4.66656V12.25H20.9999V9.91663Z" fill="#0064D9"/>
<path d="M2.33338 9.91663H0V12.25H2.33338V9.91663Z" fill="#0064D9"/>
</svg>
