<svg width="70" height="70" viewBox="0 0 70 70" fill="none" xmlns="http://www.w3.org/2000/svg">
<path d="M55.4166 29.2406V14.5834C55.4166 11.3663 52.8005 8.75 49.5832 8.75H5.83324C2.61611 8.75 0 11.3661 0 14.5834V43.75C0 46.9671 2.61611 49.5834 5.83338 49.5834H38.5386C40.4493 56.3062 46.6311 61.25 53.9584 61.25C56.7782 61.25 59.551 60.508 61.9806 59.1024C62.6771 58.6994 62.9163 57.8078 62.5118 57.11C62.1087 56.4122 61.2158 56.1714 60.5194 56.5789C58.5341 57.7268 56.2654 58.3334 53.9582 58.3334C46.7206 58.3334 40.8332 52.4459 40.8332 45.2084C40.8332 37.9709 46.7208 32.0834 53.9582 32.0834C61.1957 32.0834 67.0832 37.9709 67.0832 45.2084V46.6668C67.0832 48.2746 65.7744 49.5834 64.1666 49.5834C62.5588 49.5834 61.25 48.2746 61.25 46.6668V40.8334C61.25 40.0273 60.5977 39.375 59.7916 39.375C59.3994 39.375 59.0469 39.5337 58.7851 39.7852C57.4961 38.6366 55.8164 37.9166 53.9582 37.9166C49.9379 37.9166 46.6666 41.1879 46.6666 45.2082C46.6666 49.2286 49.9379 52.5 53.9584 52.5C56.1317 52.5 58.064 51.5251 59.4011 50.0114C60.4576 51.5122 62.1957 52.5 64.1668 52.5C67.3839 52.5 70 49.8839 70 46.6666V45.2082C70 36.8551 63.5802 29.9808 55.4166 29.2406ZM5.83338 11.6666H49.5834C49.6441 11.6666 49.6949 11.6977 49.7548 11.7013L28.9075 28.8135C28.1656 29.2806 27.0903 29.1837 26.6075 28.8876L5.66371 11.7011C5.72291 11.6975 5.77322 11.6666 5.83338 11.6666ZM52.5 29.2406C44.3364 29.9808 37.9166 36.8551 37.9166 45.2084C37.9166 45.7006 37.9468 46.1856 37.9904 46.6668H5.83338C4.22557 46.6668 2.91676 45.358 2.91676 43.7501V14.5834C2.91676 14.1704 3.00795 13.7803 3.16354 13.424L24.8858 31.2375C25.7346 31.7915 26.7102 32.0835 27.7085 32.0835C28.6684 32.0835 29.6069 31.8129 30.4329 31.3003C30.5155 31.2561 30.5938 31.2035 30.6679 31.1422L52.2531 13.4237C52.4088 13.7803 52.5001 14.1704 52.5001 14.5835V29.2406H52.5ZM53.9584 49.5834C51.5458 49.5834 49.5834 47.6209 49.5834 45.2084C49.5834 42.7958 51.5458 40.8334 53.9584 40.8334C56.3709 40.8334 58.3334 42.7958 58.3334 45.2084C58.3334 47.6209 56.3709 49.5834 53.9584 49.5834Z" fill="#0064D9"/>
</svg>
