<svg width="70" height="70" viewBox="0 0 70 70" fill="none" xmlns="http://www.w3.org/2000/svg">
<g clip-path="url(#clip0)">
<path d="M68.5082 18.794L56.252 6.53777C54.4685 4.75398 51.7 4.5459 49.6696 6.04298L43.0488 10.9247C42.8085 11.1019 42.6574 11.3752 42.635 11.673C42.6125 11.9707 42.7212 12.2635 42.9323 12.4747L44.5279 14.0702L37.5184 21.0797H32.4812L25.4713 14.0698L27.0671 12.4739C27.2783 12.2626 27.3867 11.9699 27.3645 11.6721C27.342 11.3744 27.1908 11.1011 26.9505 10.9239L20.3299 6.04325C18.3003 4.54576 15.532 4.75385 13.7477 6.53831L11.807 8.47919C11.4067 8.8795 11.4067 9.52865 11.807 9.92896C12.2073 10.3293 12.8564 10.3293 13.2567 9.92896L15.1976 7.98809C16.2593 6.92646 17.9056 6.80246 19.1131 7.69332L21.316 9.31728L4.27056 26.3625L2.64661 24.1604C1.75642 22.9514 1.88029 21.3039 2.9411 20.2431L10.3576 12.8267C10.7579 12.4264 10.7579 11.7774 10.3576 11.377C9.95743 10.9766 9.30828 10.9766 8.90783 11.377L1.49132 18.7933C-0.291639 20.5763 -0.500137 23.3447 0.996125 25.3765L5.87853 31.9975C6.05572 32.2378 6.32902 32.3889 6.62679 32.4113C6.6525 32.4132 6.67806 32.4142 6.70363 32.4142C6.97434 32.4142 7.23547 32.3069 7.42852 32.1139L9.02418 30.5181L10.2146 31.7086C7.6995 33.8738 6.22798 37.0343 6.22798 40.3817C6.22798 45.8782 10.1509 50.5719 15.473 51.6116C16.0517 54.6785 18.2361 57.1843 21.1175 58.2179V61.9001C21.1175 63.5841 22.4868 64.954 24.1701 64.954C25.4945 64.954 26.6244 64.1064 27.0466 62.9253H28.5143C28.9363 64.1064 30.0655 64.954 31.3894 64.954C32.7138 64.954 33.8436 64.1064 34.2658 62.9253H35.7339C36.1559 64.1061 37.2855 64.9536 38.6097 64.9536C39.9338 64.9536 41.0632 64.1061 41.4853 62.9253H42.9535C43.3756 64.1061 44.5052 64.9536 45.8291 64.9536C47.5127 64.9536 48.8824 63.584 48.8824 61.9004V53.841C50.4902 53.619 51.9353 52.8832 53.0471 51.8043C55.0964 51.6758 57.0656 51.0004 58.7661 49.8391C59.2337 49.5197 59.3539 48.8819 59.0345 48.4144C58.7154 47.9469 58.0773 47.8266 57.6099 48.146C56.7092 48.7611 55.7163 49.2087 54.6736 49.478C55.0026 48.7392 55.2148 47.938 55.287 47.0968C57.9342 45.9333 59.6678 43.3196 59.6678 40.3818C59.6678 38.106 58.6226 35.9994 56.8727 34.621L58.3307 33.163C60.4677 34.942 61.7213 37.5825 61.7213 40.3815C61.7213 42.2138 61.191 43.9902 60.1877 45.5188C59.8771 45.9921 60.0089 46.6276 60.4822 46.9383C60.6557 47.0522 60.8508 47.1065 61.0439 47.1065C61.3776 47.1065 61.7049 46.9437 61.9018 46.6438C63.125 44.7802 63.7716 42.6147 63.7716 40.3817C63.7716 37.0337 62.2999 33.8734 59.7847 31.7092L60.9758 30.5181L62.5714 32.1138C62.7644 32.3067 63.0255 32.414 63.2962 32.414C63.3218 32.414 63.3473 32.4131 63.373 32.4112C63.6708 32.3887 63.9441 32.2377 64.1213 31.9973L69.003 25.3767C70.5001 23.346 70.292 20.5777 68.5082 18.794ZM51.9802 28.2624C51.9802 28.0051 52.0804 27.7631 52.2624 27.5811L55.1507 24.6928L56.5131 26.0552L53.6248 28.9435C53.4428 29.1255 53.2009 29.2257 52.9436 29.2257C52.6863 29.2257 52.4443 29.1255 52.2624 28.9435C52.0804 28.7617 51.9802 28.5197 51.9802 28.2624ZM49.4424 18.9846L50.3532 19.8954L47.4649 22.7838C47.2829 22.9657 47.041 23.066 46.7836 23.066C46.5263 23.066 46.2844 22.9657 46.1023 22.7838C45.7267 22.4082 45.7267 21.7969 46.1023 21.4214L48.9907 18.533L49.4424 18.9846ZM45.9778 15.52L47.541 17.0832L44.6527 19.9716C43.4777 21.1466 43.4777 23.0584 44.6527 24.2334C45.2218 24.8026 45.9787 25.1161 46.7836 25.1161C47.5886 25.1161 48.3453 24.8026 48.9145 24.2334L51.8029 21.3451L53.7009 23.2431L50.8126 26.1315C50.2434 26.7007 49.9299 27.4575 49.9299 28.2624C49.9299 29.0673 50.2434 29.8242 50.8126 30.3933C51.3818 30.9625 52.1385 31.276 52.9435 31.276C53.7485 31.276 54.5053 30.9625 55.0744 30.3933L57.9628 27.505L59.526 29.0682L52.9412 35.6532L39.3928 22.105L45.9778 15.52ZM41.6628 53.9138H42.7759V60.875H41.6628V53.9138ZM34.6259 51.8635L40.4045 46.1906C40.4015 46.2781 40.3978 46.3656 40.3978 46.4538C40.3978 48.582 41.2951 50.5033 42.7294 51.8635H34.6259ZM27.224 58.1342C27.6089 57.9842 27.9805 57.8082 28.3368 57.6074V60.875H27.224V58.1342ZM34.4434 53.9138H35.5564V60.875H34.4434V53.9138ZM32.7613 50.8209C32.7874 50.5465 32.8021 50.2688 32.8021 49.9877C32.8021 45.1678 28.8807 41.2464 24.0608 41.2464C23.8719 41.2464 23.6851 41.2545 23.4991 41.2664L29.2144 35.6777C29.4282 38.6836 31.9405 41.0644 34.9998 41.0644C38.1991 41.0644 40.8018 38.4617 40.8018 35.2625C40.8018 35.1255 40.7954 34.9901 40.786 34.8556L46.6657 39.0908C45.0869 39.3453 43.672 40.0961 42.5881 41.1789L42.5893 41.1726L32.7613 50.8209ZM14.5903 36.0844L16.1594 37.6536L18.0815 43.62C17.4803 44.1849 16.9587 44.833 16.5358 45.5468C14.1602 45.0193 12.3813 42.867 12.3813 40.3818C12.3815 38.6602 13.2122 37.0721 14.5903 36.0844ZM34.9998 31.5107C37.0686 31.5107 38.7516 33.1938 38.7516 35.2625C38.7516 37.3312 37.0686 39.0142 34.9998 39.0142C32.9311 39.0142 31.2481 37.3312 31.2481 35.2625C31.2481 33.1938 32.9311 31.5107 34.9998 31.5107ZM51.0194 39.7C51.0194 39.7 38.6263 30.7331 38.482 30.6244C37.5114 29.8939 36.3052 29.4605 34.9998 29.4605C33.4902 29.4605 32.1137 30.0406 31.0805 30.9889L19.7382 42.0763L18.2268 37.3845L32.4813 23.1299H37.5185L51.7729 37.3843L51.0264 39.703C51.0241 39.702 51.0218 39.7011 51.0194 39.7ZM14.8491 24.6929L17.7375 27.5813C17.9194 27.7632 18.0197 28.0051 18.0197 28.2624C18.0197 28.5197 17.9194 28.7617 17.7375 28.9435C17.5555 29.1255 17.3136 29.2257 17.0562 29.2257C16.7989 29.2257 16.557 29.1255 16.3751 28.9435L13.4867 26.0552L14.8491 24.6929ZM6.82135 29.8216L5.50118 28.0314L22.9849 10.5476L24.7747 11.867L6.82135 29.8216ZM12.0371 27.5051L14.9253 30.3933C15.4944 30.9625 16.2512 31.276 17.0562 31.276C17.8612 31.276 18.6179 30.9625 19.1871 30.3933C19.7563 29.8242 20.0698 29.0673 20.0698 28.2624C20.0698 27.4575 19.7563 26.7007 19.1871 26.1315L16.2988 23.2431L16.3226 23.2194L18.1968 21.3451L21.0852 24.2334C21.6544 24.8026 22.4111 25.1161 23.2161 25.1161C24.0211 25.1161 24.7779 24.8026 25.347 24.2334C26.522 23.0584 26.522 21.1466 25.347 19.9716L22.4587 17.0832L24.0219 15.52L30.6069 22.105L17.0585 35.6532L10.4738 29.0685L12.0371 27.5051ZM21.009 18.533L23.8974 21.4214C24.2729 21.7969 24.2729 22.4082 23.8974 22.7838C23.7154 22.9657 23.4734 23.066 23.2161 23.066C22.9588 23.066 22.7168 22.9657 22.5348 22.7838L19.6466 19.8954L21.009 18.533ZM8.27823 40.3817C8.27823 37.5833 9.53168 34.9425 11.6685 33.1624L13.1267 34.6207C11.3766 35.9992 10.3311 38.1058 10.3311 40.3817C10.3311 42.2218 11.0178 43.9831 12.2648 45.3413C13.2006 46.3604 14.3888 47.0853 15.6958 47.4509C15.4988 48.0991 15.3754 48.7787 15.335 49.4805C11.2396 48.4302 8.27823 44.709 8.27823 40.3817ZM17.3697 49.9877C17.3697 46.2983 20.3714 43.2967 24.0608 43.2967C27.7501 43.2967 30.7518 46.2982 30.7518 49.9877C30.7518 53.6773 27.7501 56.6788 24.0608 56.6788C20.3714 56.6788 17.3697 53.6773 17.3697 49.9877ZM24.1701 62.9038C23.6175 62.9038 23.1677 62.4536 23.1677 61.9001V58.6838C23.4614 58.7137 23.7592 58.729 24.0606 58.729C24.438 58.729 24.8089 58.7024 25.1738 58.6558V61.9001C25.1738 62.4536 24.7236 62.9038 24.1701 62.9038ZM31.3894 62.9038C30.8367 62.9038 30.3871 62.4536 30.3871 61.9001V56.0249L32.3932 54.0554V61.9C32.3932 62.4536 31.9429 62.9038 31.3894 62.9038ZM38.6097 62.9034C38.0566 62.9034 37.6067 62.4534 37.6067 61.9004V53.9138H39.6125V61.9004C39.6125 62.4534 39.1627 62.9034 38.6097 62.9034ZM45.8291 62.9034C45.2761 62.9034 44.8263 62.4534 44.8263 61.9004V53.9138H46.8321V61.9004C46.8321 62.4534 46.3822 62.9034 45.8291 62.9034ZM47.8573 51.863C44.8747 51.863 42.4481 49.4365 42.4481 46.4538C42.4481 43.4713 44.8746 41.0446 47.8573 41.0446C50.8398 41.0446 53.2664 43.4711 53.2664 46.4538C53.2664 49.4365 50.8398 51.863 47.8573 51.863ZM57.6175 40.3818C57.6175 42.2344 56.6609 43.9085 55.1433 44.8599C54.8004 43.2913 53.963 41.9061 52.8025 40.8762L53.84 37.6538L55.4091 36.0847C56.787 37.0719 57.6175 38.6601 57.6175 40.3818ZM63.1784 29.8211L45.2248 11.8677L47.0149 10.5478L64.4982 28.0311L63.1784 29.8211ZM67.3528 24.1596L65.7287 26.3621L48.6837 9.31714L50.8863 7.69305C52.0943 6.80232 53.7411 6.92619 54.8022 7.98741L67.0585 20.2437C68.1197 21.3049 68.2434 22.9518 67.3528 24.1596Z" fill="#0064D9"/>
<path d="M27.1548 49.9878C27.1548 48.2816 25.7669 46.8937 24.0608 46.8937C22.3546 46.8937 20.9667 48.2816 20.9667 49.9878C20.9667 51.6939 22.3546 53.0818 24.0608 53.0818C25.7669 53.0818 27.1548 51.6939 27.1548 49.9878ZM23.0169 49.9878C23.0169 49.4122 23.4852 48.9439 24.0608 48.9439C24.6363 48.9439 25.1046 49.4122 25.1046 49.9878C25.1046 50.5633 24.6363 51.0316 24.0608 51.0316C23.4852 51.0316 23.0169 50.5633 23.0169 49.9878Z" fill="#0064D9"/>
<path d="M47.8573 43.3597C46.1512 43.3597 44.7632 44.7477 44.7632 46.4538C44.7632 48.1599 46.1512 49.5479 47.8573 49.5479C49.5634 49.5479 50.9514 48.1599 50.9514 46.4538C50.9514 44.7477 49.5634 43.3597 47.8573 43.3597ZM47.8573 47.4977C47.2817 47.4977 46.8134 47.0294 46.8134 46.4538C46.8134 45.8782 47.2817 45.41 47.8573 45.41C48.4329 45.41 48.9011 45.8782 48.9011 46.4538C48.9011 47.0294 48.4329 47.4977 47.8573 47.4977Z" fill="#0064D9"/>
</g>
<defs>
<clipPath id="clip0">
<rect width="70" height="70" fill="white"/>
</clipPath>
</defs>
</svg>
