<svg width="70" height="70" viewBox="0 0 70 70" fill="none" xmlns="http://www.w3.org/2000/svg">
<path d="M43.0812 20.2459C43.081 18.6476 42.6068 17.0853 41.7187 15.7565C40.8306 14.4277 39.5684 13.3921 38.0918 12.7806C36.6151 12.1691 34.9903 12.0092 33.4228 12.3212C31.8552 12.6331 30.4154 13.4029 29.2854 14.5331C28.1553 15.6633 27.3857 17.1032 27.074 18.6708C26.7623 20.2384 26.9224 21.8632 27.5341 23.3397C28.1458 24.8163 29.1815 26.0783 30.5105 26.9663C31.8394 27.8542 33.4017 28.3281 35 28.3281C37.1426 28.3255 39.1968 27.4731 40.7118 25.9579C42.2267 24.4427 43.0789 22.3885 43.0812 20.2459ZM28.8329 20.2459C28.8331 19.0262 29.195 17.8339 29.8728 16.8199C30.5505 15.8059 31.5138 15.0156 32.6407 14.549C33.7676 14.0824 35.0076 13.9604 36.2038 14.1985C37.4 14.4366 38.4988 15.024 39.3612 15.8865C40.2236 16.7491 40.8108 17.8479 41.0487 19.0442C41.2866 20.2405 41.1644 21.4804 40.6976 22.6072C40.2308 23.7341 39.4403 24.6972 38.4261 25.3748C37.412 26.0524 36.2197 26.4141 35 26.4141C33.3648 26.4122 31.7971 25.7617 30.6409 24.6053C29.4847 23.4489 28.8345 21.8811 28.8329 20.2459Z" fill="#0064D9"/>
<path d="M67.445 66.2096L59.6433 45.7565C59.5741 45.5754 59.4515 45.4196 59.2919 45.3096C59.1322 45.1997 58.943 45.1408 58.7491 45.1407H43.9835C44.0737 44.9936 44.1634 44.8508 44.2537 44.7032C49.9351 35.2969 52.7942 27.0687 52.7532 20.2502C52.754 15.5416 50.8843 11.0256 47.5554 7.69555C44.2264 4.36551 39.711 2.49427 35.0024 2.49347C30.2939 2.49267 25.7778 4.36238 22.4478 7.69129C19.1177 11.0202 17.2465 15.5356 17.2457 20.2442C17.2047 27.0687 20.0637 35.298 25.7452 44.7032C25.8354 44.8525 25.9251 44.9952 26.0154 45.1407H11.2497C11.0559 45.1408 10.8666 45.1997 10.707 45.3096C10.5473 45.4196 10.4248 45.5754 10.3556 45.7565L2.55498 66.2096C2.4994 66.3545 2.47994 66.5108 2.49827 66.6649C2.51661 66.819 2.5722 66.9663 2.66023 67.0942C2.74826 67.222 2.86609 67.3264 3.00354 67.3985C3.14099 67.4706 3.29392 67.5081 3.44912 67.5079H66.5508C66.706 67.5081 66.859 67.4706 66.9964 67.3985C67.1339 67.3264 67.2517 67.222 67.3397 67.0942C67.4278 66.9663 67.4834 66.819 67.5017 66.6649C67.52 66.5108 67.5006 66.3545 67.445 66.2096ZM19.1603 20.2458C19.1607 18.1658 19.5707 16.1061 20.3671 14.1845C21.1634 12.2629 22.3305 10.5169 23.8016 9.0463C25.2727 7.5757 27.019 6.40926 28.9409 5.61358C30.8628 4.81789 32.9226 4.40854 35.0027 4.4089C37.0828 4.40926 39.1425 4.81932 41.0641 5.61567C42.9857 6.41202 44.7317 7.57906 46.2023 9.05017C47.6729 10.5213 48.8393 12.2676 49.635 14.1895C50.4307 16.1114 50.84 18.1712 50.8397 20.2513C50.9217 33.8455 38.2123 50.6122 35 54.6328C31.7876 50.6138 19.0777 33.8516 19.1603 20.2458ZM34.271 56.7656C34.3608 56.8712 34.4726 56.9561 34.5984 57.0143C34.7243 57.0724 34.8613 57.1026 35 57.1026C35.1386 57.1026 35.2757 57.0724 35.4015 57.0143C35.5274 56.9561 35.6391 56.8712 35.729 56.7656C38.2699 53.6702 40.6256 50.4272 42.7837 47.0537H58.089L59.314 50.2665L29.4049 60.9038L18.7441 47.052H27.2152C29.3735 50.4262 31.7296 53.6697 34.271 56.7656ZM29.3715 62.9453H29.377L47.2199 56.6015L54.1406 65.5938H21.9297L29.3715 62.9453ZM11.9098 47.052H16.3286L27.5078 61.5781L16.2187 65.5933H4.83818L11.9098 47.052ZM56.5583 65.5938L49.1159 55.924L59.9987 52.0537L65.1629 65.5938H56.5583Z" fill="#0064D9"/>
</svg>
