<svg width="25" height="25" viewBox="0 0 25 25" fill="none" xmlns="http://www.w3.org/2000/svg">
<path d="M14.5063 17.4366L18.2414 11.4308C18.2536 11.4113 18.2638 11.3909 18.2718 11.3697C18.9167 10.3179 19.2573 9.11642 19.2573 7.88974C19.2573 4.20969 16.2633 1.21573 12.5833 1.21573C8.90332 1.21573 5.90914 4.20969 5.90914 7.88974C5.90914 9.11667 6.25019 10.3187 6.89566 11.3712C6.90313 11.3897 6.91185 11.4076 6.92231 11.425L10.5234 17.4516C7.72797 17.8467 5.88971 18.9961 5.88971 20.3905C5.88971 22.1182 8.8256 23.4711 12.5734 23.4711C16.3211 23.4711 19.257 22.1179 19.257 20.3905C19.2573 18.9897 17.3333 17.8145 14.5063 17.4366ZM7.56654 11.0347C6.97114 10.087 6.6565 8.99958 6.6565 7.88974C6.6565 4.62174 9.31512 1.9631 12.5833 1.9631C15.8513 1.9631 18.5099 4.62174 18.5099 7.88974C18.5099 9.00008 18.1953 10.0875 17.6001 11.0347C17.5877 11.0546 17.5775 11.0753 17.5692 11.0967L13.6232 17.4411C13.5639 17.532 13.5522 17.5527 13.4797 17.6718L12.4832 19.2742L7.59992 11.1019C7.5912 11.0788 7.57999 11.0561 7.56654 11.0347ZM12.5736 22.7238C9.07522 22.7238 6.63732 21.4938 6.63732 20.3905C6.63732 19.389 8.47334 18.4453 10.9429 18.1531L12.1561 20.1837C12.2231 20.2956 12.3432 20.3646 12.4735 20.3656C12.4745 20.3656 12.4757 20.3656 12.4767 20.3656C12.6058 20.3656 12.7258 20.2988 12.7941 20.1892L14.0696 18.1384C16.5785 18.4102 18.5097 19.3778 18.5097 20.3905C18.5099 21.4941 16.072 22.7238 12.5736 22.7238Z" fill="white"/>
<path d="M15.0003 7.88972C15.0003 6.55168 13.9117 5.46301 12.5736 5.46301C11.2356 5.46301 10.1469 6.55168 10.1469 7.88972C10.1469 9.22776 11.2356 10.3164 12.5736 10.3164C13.9117 10.3164 15.0003 9.22776 15.0003 7.88972ZM10.8943 7.88972C10.8943 6.96373 11.6476 6.21038 12.5736 6.21038C13.4996 6.21038 14.253 6.96373 14.253 7.88972C14.253 8.81571 13.4999 9.56906 12.5736 9.56906C11.6474 9.56906 10.8943 8.81571 10.8943 7.88972Z" fill="white"/>
</svg>
