<svg width="70" height="70" viewBox="0 0 70 70" fill="none" xmlns="http://www.w3.org/2000/svg">
<g clip-path="url(#clip0)">
<path d="M11.6309 62.1976C11.3767 61.9432 11.024 61.7971 10.6644 61.7971C10.3049 61.7971 9.95212 61.9432 9.69783 62.1976C9.44353 62.4521 9.29724 62.8047 9.29724 63.1642C9.29724 63.5238 9.44339 63.8766 9.69783 64.1307C9.95212 64.385 10.3049 64.5314 10.6644 64.5314C11.024 64.5314 11.3767 64.3851 11.6309 64.1307C11.8852 63.8766 12.0316 63.5238 12.0316 63.1642C12.0316 62.8047 11.8853 62.4519 11.6309 62.1976Z" fill="#0064D9"/>
<path d="M64.1927 25.0111C63.9384 24.7566 63.5871 24.6105 63.2261 24.6105C62.8666 24.6105 62.5138 24.7566 62.2595 25.0111C62.0054 25.2654 61.8589 25.6181 61.8589 25.9777C61.8589 26.3372 62.0052 26.69 62.2595 26.9441C62.5138 27.1984 62.8666 27.3448 63.2261 27.3448C63.5871 27.3448 63.9384 27.1986 64.1927 26.9441C64.4483 26.69 64.5946 26.3372 64.5946 25.9777C64.5946 25.6181 64.4483 25.2654 64.1927 25.0111Z" fill="#0064D9"/>
<path d="M69.5988 0.400449C69.3423 0.144102 68.9945 0 68.6317 0L34.9997 0.00177734C34.2448 0.00177734 33.6327 0.614004 33.6327 1.36896V5.27871L20.6733 8.75123C19.9439 8.94674 19.511 9.69637 19.7065 10.4256L26.4231 35.4919L20.6127 41.3023C19.8732 40.2225 18.6315 39.5124 17.227 39.5124H4.1024C1.8408 39.5124 0.000976563 41.3524 0.000976563 43.6138V65.8984C0.000976562 68.16 1.8408 70 4.1024 70H17.2271C19.1484 70 20.7647 68.6716 21.2077 66.8855L22.8333 68.3032C24.0882 69.3975 25.696 70.0001 27.3611 70.0001H68.632C69.387 70.0001 69.9992 69.3879 69.9992 68.6329V1.36719C69.9989 1.00461 69.8551 0.656797 69.5988 0.400449ZM18.594 65.8986C18.594 66.6523 17.9807 67.2658 17.2269 67.2658H4.10227C3.3484 67.2658 2.73508 66.6524 2.73508 65.8986V43.614C2.73508 42.8601 3.3484 42.2468 4.10227 42.2468H9.29744V57.9961C9.29744 58.7511 9.90967 59.3633 10.6646 59.3633C11.4196 59.3633 12.0318 58.7511 12.0318 57.9961V42.2468H17.227C17.9809 42.2468 18.5942 42.8601 18.5942 43.614V65.8986H18.594ZM22.7015 11.0385L33.6327 8.10947V13.1756L32.7164 13.4211C32.366 13.5151 32.0675 13.7441 31.8863 14.0581C31.705 14.3721 31.6557 14.7453 31.7497 15.0955C32.2751 17.0562 31.1074 19.0787 29.1467 19.6041C28.796 19.6982 28.497 19.9276 28.3158 20.2423C28.1347 20.5569 28.0859 20.9307 28.1806 21.2812L33.5098 41.0149H30.7658L29.3518 35.4828C29.3068 35.3067 29.228 35.1444 29.1226 35.0033L22.7015 11.0385ZM33.6327 19.4454V30.9818L31.1391 21.7485C32.1807 21.2107 33.0332 20.406 33.6327 19.4454ZM53.2743 67.2656H27.3609C26.3567 67.2656 25.3869 66.9022 24.63 66.2423L21.3284 63.3629V44.4537L27.2973 38.4848L28.3798 42.7204C28.5346 43.3256 29.0797 43.7489 29.7044 43.7489L56.5838 43.7505C57.6393 43.7505 58.4979 44.6091 58.4979 45.6646C58.4979 46.7201 57.6393 47.5787 56.5838 47.5787H42.8108C42.0558 47.5787 41.4436 48.1909 41.4436 48.9459C41.4436 49.7008 42.0558 50.313 42.8108 50.313H60.8631C61.9186 50.313 62.7772 51.1716 62.7772 52.2271C62.7772 53.2826 61.9186 54.1412 60.8631 54.1412H42.8108C42.0558 54.1412 41.4436 54.7534 41.4436 55.5084C41.4436 56.2633 42.0558 56.8755 42.8108 56.8755H57.9377C58.9932 56.8755 59.8518 57.7341 59.8518 58.7896C59.8518 59.8451 58.9932 60.7037 57.9377 60.7037H42.8108C42.0558 60.7037 41.4436 61.3159 41.4436 62.0709C41.4436 62.8258 42.0558 63.438 42.8108 63.438H53.2743C54.3297 63.438 55.1883 64.2966 55.1883 65.3521C55.1882 66.407 54.3296 67.2656 53.2743 67.2656ZM67.2648 67.2656H67.2647H57.5086C57.7737 66.6814 57.9226 66.0338 57.9226 65.3516C57.9226 64.6693 57.7737 64.0217 57.5086 63.4375H57.9377C60.5008 63.4375 62.586 61.3523 62.586 58.7892C62.586 58.0416 62.4076 57.3352 62.0926 56.7087C64.0608 56.1682 65.5113 54.3642 65.5113 52.2268C65.5113 51.19 65.1698 50.2314 64.5938 49.4576V32.1299C64.5938 31.3749 63.9815 30.7627 63.2266 30.7627C62.4716 30.7627 61.8594 31.3749 61.8594 32.1299V47.6874C61.5381 47.617 61.2049 47.5787 60.8628 47.5787H60.818C61.0831 46.9945 61.232 46.3468 61.232 45.6646C61.232 43.1014 59.1467 41.0163 56.5837 41.0163H54.3859C56.7196 40.0155 58.3586 37.696 58.3586 35C58.3586 31.3921 55.4235 28.4569 51.8156 28.4569C48.2079 28.4569 45.2727 31.3921 45.2727 35C45.2727 37.696 46.9118 40.0155 49.2453 41.0163H41.7718V15.0203C44.2142 14.4881 46.1414 12.561 46.6735 10.1186H56.9576C57.4897 12.561 59.4169 14.4881 61.8592 15.0203V19.2709C61.8592 20.0259 62.4715 20.6381 63.2264 20.6381C63.9814 20.6381 64.5936 20.0259 64.5936 19.2709V13.7997C64.5936 13.0447 63.9814 12.4325 63.2264 12.4325C61.1966 12.4325 59.5454 10.7811 59.5454 8.75137C59.5454 7.99641 58.9332 7.38418 58.1782 7.38418H45.453C44.698 7.38418 44.0858 7.99641 44.0858 8.75137C44.0858 10.7812 42.4345 12.4325 40.4048 12.4325C39.6498 12.4325 39.0376 13.0447 39.0376 13.7997V41.0162H36.3672V2.73588L67.2648 2.73438V67.2656ZM51.8159 38.8087C49.7157 38.8087 48.0073 37.1001 48.0073 35.0001C48.0073 32.9001 49.7159 31.1914 51.8159 31.1914C53.9159 31.1914 55.6245 32.9 55.6245 35C55.6245 37.1 53.916 38.8087 51.8159 38.8087Z" fill="#0064D9"/>
</g>
<defs>
<clipPath id="clip0">
<rect width="70" height="70" fill="white"/>
</clipPath>
</defs>
</svg>
