<svg width="180" height="180" viewBox="0 0 180 180" fill="none" xmlns="http://www.w3.org/2000/svg">
<g clip-path="url(#clip0)">
<path d="M135.945 107.017C123.434 107.017 113.256 117.195 113.256 129.706C113.256 142.217 123.434 152.395 135.945 152.395C148.458 152.395 158.634 142.217 158.634 129.706C158.634 117.195 148.456 107.017 135.945 107.017ZM135.945 141.05C129.689 141.05 124.6 135.962 124.6 129.706C124.6 123.449 129.689 118.361 135.945 118.361C142.201 118.361 147.29 123.449 147.29 129.706C147.29 135.963 142.201 141.05 135.945 141.05Z" fill="#0064D9"/>
<path d="M58.4245 107.017C45.9134 107.017 35.7354 117.195 35.7354 129.706C35.7354 142.217 45.9134 152.395 58.4245 152.395C70.9355 152.395 81.1136 142.217 81.1136 129.706C81.1136 117.195 70.9355 107.017 58.4245 107.017ZM58.4245 141.05C52.1681 141.05 47.0799 135.962 47.0799 129.706C47.0799 123.449 52.1681 118.361 58.4245 118.361C64.6791 118.361 69.7691 123.449 69.7691 129.706C69.7691 135.963 64.6809 141.05 58.4245 141.05Z" fill="#0064D9"/>
<path d="M151.224 42.0732C150.26 40.1579 148.299 38.9496 146.155 38.9496H116.281V50.2942H142.657L158.103 81.0151L168.241 75.9175L151.224 42.0732Z" fill="#0064D9"/>
<path d="M118.929 124.223H76.0088V135.567H118.929V124.223Z" fill="#0064D9"/>
<path d="M41.407 124.223H21.7434C18.6103 124.223 16.0713 126.762 16.0713 129.895C16.0713 133.028 18.6106 135.567 21.7434 135.567H41.4073C44.5405 135.567 47.0795 133.028 47.0795 129.895C47.0795 126.762 44.5401 124.223 41.407 124.223Z" fill="#0064D9"/>
<path d="M178.809 89.5461L167.651 75.1764C166.579 73.7923 164.925 72.983 163.172 72.983H121.953V33.2771C121.953 30.144 119.414 27.605 116.281 27.605H21.7434C18.6103 27.605 16.0713 30.1444 16.0713 33.2771C16.0713 36.4099 18.6106 38.9493 21.7434 38.9493H110.609V78.6551C110.609 81.7882 113.148 84.3272 116.281 84.3272H160.394L168.655 94.9683V124.222H152.962C149.829 124.222 147.29 126.761 147.29 129.894C147.29 133.027 149.829 135.566 152.962 135.566H174.327C177.46 135.566 179.999 133.027 180 129.894V93.0252C180 91.7659 179.58 90.5407 178.809 89.5461Z" fill="#0064D9"/>
<path d="M41.0294 95.4833H14.9368C11.8036 95.4833 9.26465 98.0226 9.26465 101.155C9.26465 104.289 11.804 106.828 14.9368 106.828H41.029C44.1621 106.828 46.7011 104.288 46.7011 101.155C46.7015 98.0226 44.1621 95.4833 41.0294 95.4833Z" fill="#0064D9"/>
<path d="M54.0756 73.1721H5.67211C2.53934 73.1721 0 75.7115 0 78.8446C0 81.9777 2.53934 84.5167 5.67211 84.5167H54.0756C57.2087 84.5167 59.7477 81.9773 59.7477 78.8446C59.7477 75.7118 57.2087 73.1721 54.0756 73.1721Z" fill="#0064D9"/>
<path d="M63.3402 50.8612H14.9368C11.8036 50.8612 9.26465 53.4006 9.26465 56.5333C9.26465 59.6665 11.804 62.2055 14.9368 62.2055H63.3402C66.4734 62.2055 69.0124 59.6661 69.0124 56.5333C69.0127 53.4006 66.4734 50.8612 63.3402 50.8612Z" fill="#0064D9"/>
</g>
<defs>
<clipPath id="clip0">
<rect width="180" height="180" fill="white"/>
</clipPath>
</defs>
</svg>
