<svg width="70" height="70" viewBox="0 0 70 70" fill="none" xmlns="http://www.w3.org/2000/svg">
<path d="M16.3156 15.8324L14.6413 14.3184C13.7855 15.2645 12.5639 15.8065 11.2903 15.8065C8.79968 15.8065 6.77419 13.781 6.77419 11.2903C6.77419 8.79968 8.79968 6.77419 11.2903 6.77419C13.781 6.77419 15.8065 8.79968 15.8065 11.2903C15.8065 11.9474 15.6687 12.5808 15.3977 13.1724L17.4492 14.114C17.8579 13.2255 18.0645 12.2748 18.0645 11.2903C18.0645 7.55435 15.0263 4.51613 11.2903 4.51613C7.55435 4.51613 4.51613 7.55435 4.51613 11.2903C4.51613 15.0263 7.55435 18.0645 11.2903 18.0645C13.2006 18.0645 15.0331 17.2505 16.3156 15.8324Z" fill="#0064D9"/>
<path d="M4.51613 58.7097C4.51613 62.4456 7.55435 65.4839 11.2903 65.4839C15.0263 65.4839 18.0645 62.4456 18.0645 58.7097C18.0645 54.9737 15.0263 51.9355 11.2903 51.9355C7.55435 51.9355 4.51613 54.9737 4.51613 58.7097ZM15.8065 58.7097C15.8065 61.2003 13.781 63.2258 11.2903 63.2258C8.79968 63.2258 6.77419 61.2003 6.77419 58.7097C6.77419 56.219 8.79968 54.1936 11.2903 54.1936C13.781 54.1936 15.8065 56.219 15.8065 58.7097Z" fill="#0064D9"/>
<path d="M22.5806 11.2903C22.5806 5.06484 17.5158 0 11.2903 0C5.06484 0 0 5.06484 0 11.2903C0 14.8592 1.67774 18.191 4.51613 20.3215V49.6785C1.67774 51.809 0 55.1408 0 58.7097C0 64.9352 5.06484 70 11.2903 70C17.5158 70 22.5806 64.9352 22.5806 58.7097C22.5806 55.1408 20.9029 51.809 18.0645 49.6785V20.3215C20.9029 18.191 22.5806 14.8592 22.5806 11.2903ZM16.3077 51.2005C18.821 52.8827 20.3226 55.6895 20.3226 58.7097C20.3226 63.6898 16.2705 67.7419 11.2903 67.7419C6.31016 67.7419 2.25806 63.6898 2.25806 58.7097C2.25806 55.6895 3.75968 52.8827 6.2729 51.2005L6.77419 50.8652V19.1348L6.2729 18.7995C3.75968 17.1173 2.25806 14.3105 2.25806 11.2903C2.25806 6.31016 6.31016 2.25806 11.2903 2.25806C16.2705 2.25806 20.3226 6.31016 20.3226 11.2903C20.3226 14.3105 18.821 17.1173 16.3077 18.7995L15.8065 19.1348V50.8652L16.3077 51.2005Z" fill="#0064D9"/>
<path d="M65.4839 49.6785V20.3215C68.3223 18.191 70 14.8592 70 11.2903C70 5.06484 64.9352 0 58.7097 0C52.4842 0 47.4194 5.06484 47.4194 11.2903C47.4194 14.8592 49.0971 18.191 51.9355 20.3215V49.6785C49.0971 51.809 47.4194 55.1408 47.4194 58.7097C47.4194 64.9352 52.4842 70 58.7097 70C64.9352 70 70 64.9352 70 58.7097C70 55.1408 68.3223 51.809 65.4839 49.6785ZM58.7097 67.7419C53.7295 67.7419 49.6774 63.6898 49.6774 58.7097C49.6774 55.6895 51.179 52.8827 53.6923 51.2005L54.1936 50.8652V19.1348L53.6923 18.7995C51.179 17.1173 49.6774 14.3105 49.6774 11.2903C49.6774 6.31016 53.7295 2.25806 58.7097 2.25806C63.6898 2.25806 67.7419 6.31016 67.7419 11.2903C67.7419 14.3105 66.2403 17.1173 63.7271 18.7995L63.2258 19.1348V50.8652L63.7271 51.2005C66.2403 52.8827 67.7419 55.6895 67.7419 58.7097C67.7419 63.6898 63.6898 67.7419 58.7097 67.7419Z" fill="#0064D9"/>
<path d="M12.4194 20.3226H10.1613V22.5807H12.4194V20.3226Z" fill="#0064D9"/>
<path d="M12.4194 27.0968H10.1613V29.3548H12.4194V27.0968Z" fill="#0064D9"/>
<path d="M12.4194 33.871H10.1613V36.129H12.4194V33.871Z" fill="#0064D9"/>
<path d="M12.4194 40.6452H10.1613V42.9032H12.4194V40.6452Z" fill="#0064D9"/>
<path d="M12.4194 47.4194H10.1613V49.6774H12.4194V47.4194Z" fill="#0064D9"/>
<path d="M39.5161 22.5806C39.5161 20.09 37.4906 18.0645 35 18.0645C32.5094 18.0645 30.4839 20.09 30.4839 22.5806C30.4839 25.0713 32.5094 27.0968 35 27.0968C37.4906 27.0968 39.5161 25.0713 39.5161 22.5806ZM35 24.8387C33.7547 24.8387 32.7419 23.826 32.7419 22.5806C32.7419 21.3353 33.7547 20.3226 35 20.3226C36.2453 20.3226 37.2581 21.3353 37.2581 22.5806C37.2581 23.826 36.2453 24.8387 35 24.8387Z" fill="#0064D9"/>
<path d="M30.4839 60.9677C30.4839 63.4584 32.5094 65.4839 35 65.4839C37.4906 65.4839 39.5161 63.4584 39.5161 60.9677C39.5161 58.4771 37.4906 56.4516 35 56.4516C32.5094 56.4516 30.4839 58.4771 30.4839 60.9677ZM37.2581 60.9677C37.2581 62.2131 36.2453 63.2258 35 63.2258C33.7547 63.2258 32.7419 62.2131 32.7419 60.9677C32.7419 59.7224 33.7547 58.7097 35 58.7097C36.2453 58.7097 37.2581 59.7224 37.2581 60.9677Z" fill="#0064D9"/>
<path d="M44.0323 22.5806C44.0323 17.6005 39.9802 13.5484 35 13.5484C30.0198 13.5484 25.9677 17.6005 25.9677 22.5806C25.9677 25.7984 27.7189 28.7903 30.4839 30.3935V53.1548C27.7189 54.7581 25.9677 57.75 25.9677 60.9677C25.9677 65.9479 30.0198 70 35 70C39.9802 70 44.0323 65.9479 44.0323 60.9677C44.0323 57.75 42.2811 54.7581 39.5161 53.1548V30.3935C42.2811 28.7903 44.0323 25.7984 44.0323 22.5806ZM37.9016 54.8552C40.2545 55.974 41.7742 58.3732 41.7742 60.9677C41.7742 64.7037 38.736 67.7419 35 67.7419C31.264 67.7419 28.2258 64.7037 28.2258 60.9677C28.2258 58.3732 29.7455 55.974 32.0984 54.8552L32.7419 54.5481V29.0003L32.0984 28.6944C29.7455 27.5744 28.2258 25.1752 28.2258 22.5806C28.2258 18.8447 31.264 15.8065 35 15.8065C38.736 15.8065 41.7742 18.8447 41.7742 22.5806C41.7742 25.1752 40.2545 27.5744 37.9016 28.6932L37.2581 29.0003V54.5492L37.9016 54.8552Z" fill="#0064D9"/>
<path d="M61.9692 16.9355L65.2287 11.2903L61.9692 5.64516H55.4513L52.1917 11.2903L55.4513 16.9355H61.9692ZM56.7542 7.90322H60.6651L62.6206 11.2903L60.6651 14.6774H56.7542L54.7987 11.2903L56.7542 7.90322Z" fill="#0064D9"/>
<path d="M55.4502 53.0645L52.1907 58.7097L55.4502 64.3548H61.9681L65.2276 58.7097L61.9681 53.0645H55.4502ZM60.6652 62.0968H56.7542L54.7987 58.7097L56.7542 55.3226H60.6652L62.6207 58.7097L60.6652 62.0968Z" fill="#0064D9"/>
<path d="M59.8387 48.5484H57.5806V50.8065H59.8387V48.5484Z" fill="#0064D9"/>
<path d="M59.8387 19.1935H57.5806V21.4516H59.8387V19.1935Z" fill="#0064D9"/>
<path d="M59.8387 23.7097H57.5806V46.2903H59.8387V23.7097Z" fill="#0064D9"/>
</svg>
