<svg width="70" height="70" viewBox="0 0 70 70" fill="none" xmlns="http://www.w3.org/2000/svg">
<g clip-path="url(#clip0)">
<path d="M50.3107 70C48.0511 70 45.8106 69.6005 43.6198 68.8046C33.9681 65.2984 25.0093 59.5879 17.7116 52.2903C10.4138 44.9927 4.70331 36.0338 1.1973 26.3821C0.0706449 23.2803 -0.261842 20.0785 0.209409 16.8652C0.650855 13.8553 1.81675 10.9334 3.58117 8.4151C5.35338 5.88577 7.71605 3.78203 10.4137 2.33137C13.2904 0.78446 16.4303 0 19.7464 0C20.7778 0 21.6691 0.720615 21.8853 1.72901L25.3187 17.7517C25.4741 18.4772 25.2512 19.2321 24.7266 19.7568L18.8598 25.6235C24.3942 36.627 33.3747 45.6074 44.3781 51.1418L50.2448 45.275C50.7695 44.7505 51.5246 44.5277 52.25 44.6829L68.2726 48.1163C69.2811 48.3325 70.0016 49.2238 70.0016 50.2552C70.0016 53.5713 69.2171 56.7113 67.6701 59.5881C66.2194 62.2857 64.1157 64.6484 61.5864 66.4206C59.0682 68.185 56.1463 69.3509 53.1363 69.7923C52.1931 69.9308 51.25 69.9999 50.3107 70ZM17.9987 4.47052C13.6245 4.95339 9.74214 7.24607 7.16401 10.9257C4.26487 15.0633 3.58882 20.1525 5.30922 24.8885C12.0497 43.444 26.5579 57.9522 45.1134 64.6927C49.8493 66.4131 54.9384 65.7372 59.0762 62.8379C62.7558 60.2597 65.0485 56.3774 65.5314 52.0032L52.497 49.2102L46.3701 55.3371C45.7181 55.9891 44.7274 56.1623 43.8932 55.7702C30.8795 49.6564 20.3455 39.1224 14.2317 26.1087C13.8397 25.2743 14.0128 24.2837 14.6648 23.6318L20.7917 17.5049L17.9987 4.47052Z" fill="#0064D9"/>
</g>
<defs>
<clipPath id="clip0">
<rect width="70" height="70" fill="white"/>
</clipPath>
</defs>
</svg>
