<svg width="70" height="70" viewBox="0 0 70 70" fill="none" xmlns="http://www.w3.org/2000/svg">
<g clip-path="url(#clip0)">
<path d="M69.9997 12.0044C69.9997 11.9968 69.9987 11.9891 69.9985 11.9813C69.9976 11.9508 69.9959 11.9207 69.9923 11.8909C69.9909 11.88 69.9889 11.8691 69.9873 11.8581C69.9831 11.8307 69.9781 11.8036 69.9718 11.7771C69.9693 11.7665 69.9666 11.7561 69.9637 11.7456C69.9558 11.7168 69.9468 11.6885 69.9364 11.6606C69.9345 11.6552 69.9332 11.6498 69.9312 11.6446L67.1497 4.52401C66.8693 3.80651 66.1902 3.34276 65.4198 3.34276H60.3552C59.8031 3.34276 59.3556 3.79024 59.3556 4.34231C59.3556 4.89438 59.8031 5.34186 60.3552 5.34186H65.323L67.5366 11.0087H46.6085L45.2973 5.34186H53.0264C53.5784 5.34186 54.0259 4.89438 54.0259 4.34231C54.0259 3.79024 53.5784 3.34276 53.0264 3.34276H44.04H33.9684H12.5885C11.8179 3.34276 11.139 3.80651 10.8586 4.52428L8.07702 11.6446C8.07497 11.6499 8.07388 11.6554 8.07183 11.6606C8.06143 11.6883 8.05241 11.7166 8.04448 11.7456C8.04161 11.7561 8.03888 11.7665 8.03642 11.7771C8.03013 11.8037 8.02507 11.8308 8.02097 11.8581C8.01933 11.8691 8.01727 11.88 8.01591 11.8909C8.01249 11.9207 8.01058 11.9508 8.00975 11.9813C8.00962 11.989 8.00866 11.9966 8.00852 12.0044C8.00852 12.0057 8.00839 12.0069 8.00839 12.0081V26.693C8.00839 27.2451 8.45587 27.6926 9.00794 27.6926C9.56001 27.6926 10.0075 27.2451 10.0075 26.693V13.0078H31.195V28.2011C31.195 28.7952 31.545 29.3366 32.0868 29.5804C32.2852 29.6697 32.4964 29.7133 32.7063 29.7133C33.0694 29.7133 33.4286 29.5829 33.7102 29.3332L39.0041 24.6432L44.298 29.3331C44.7425 29.7272 45.3798 29.8242 45.9217 29.5804C46.4633 29.3365 46.8133 28.7952 46.8133 28.2011V13.0078H68.0007V57.8409C68.0007 58.5582 67.4171 59.1418 66.6999 59.1418H48.3723C48.3723 59.1305 48.371 59.1191 48.3708 59.1078C48.3697 59.0181 48.3665 58.9285 48.3588 58.8397C50.0797 59.2959 51.9184 58.4115 52.608 56.7203C52.9707 55.8306 52.9654 54.8531 52.5928 53.9677C52.5577 53.8843 52.519 53.8034 52.4783 53.7237C52.4707 53.709 52.4635 53.6943 52.456 53.6798C52.4159 53.6038 52.3733 53.5295 52.3283 53.4572C52.3195 53.4431 52.3105 53.4294 52.3016 53.4155C52.254 53.3413 52.2047 53.2684 52.1521 53.1982C52.1511 53.1969 52.15 53.1957 52.149 53.1944C52.0968 53.1251 52.0416 53.0584 51.9846 52.9932C51.9742 52.9813 51.9639 52.9692 51.9534 52.9574C51.8969 52.8945 51.8383 52.8336 51.7776 52.775C51.7657 52.7635 51.7537 52.7524 51.7416 52.7412C51.6781 52.6815 51.613 52.6234 51.5452 52.5685C51.5428 52.5667 51.5405 52.565 51.5382 52.5632C51.4715 52.5095 51.4022 52.4586 51.3315 52.4097C51.3188 52.4008 51.3062 52.3917 51.2932 52.383C51.2225 52.3354 51.15 52.2904 51.0757 52.2476C51.0695 52.2441 51.0639 52.24 51.0576 52.2364C51.4801 51.8708 51.8135 51.4082 52.0306 50.8758C52.3934 49.9862 52.388 49.0086 52.0155 48.1231C51.6895 47.3483 51.1165 46.7252 50.3826 46.3385C50.2778 46.2833 50.1696 46.2328 50.0585 46.1876L34.5017 39.8443L41.7431 37.6029C43.4659 37.0696 44.4362 35.2321 43.906 33.5071C43.7082 32.8632 43.3159 32.3201 42.8093 31.9232C42.0553 31.3325 41.0475 31.0657 40.0481 31.2756C40.0433 31.2767 40.0387 31.2775 40.0339 31.2787C39.9785 31.2912 34.4272 32.5394 28.6294 33.6699C28.3722 33.7201 28.1216 33.7685 27.8745 33.8161C27.6768 33.8541 27.4819 33.8916 27.2906 33.9279C27.2357 33.9384 27.1806 33.9488 27.126 33.9592C26.7883 34.0233 26.4611 34.0847 26.1431 34.1438C26.0152 34.1676 25.8883 34.1911 25.7635 34.2141C18.4823 35.5554 16.4368 35.5795 15.8692 35.5026C15.867 35.5024 15.8651 35.5021 15.8629 35.5017C15.8543 35.5005 15.8458 35.4992 15.8378 35.498C15.8321 35.497 15.8268 35.4961 15.8214 35.4953C15.8176 35.4946 15.8135 35.4939 15.8098 35.4933C15.7744 35.4869 15.7468 35.4802 15.7255 35.4738L15.5617 35.4071L15.7658 34.9065C15.9665 34.4144 15.9635 33.8735 15.7575 33.3836C15.7059 33.2611 15.6432 33.1455 15.5704 33.0377C15.3522 32.7147 15.0436 32.4631 14.6745 32.3126L9.30585 30.1236C8.8138 29.9227 8.2728 29.9259 7.78294 30.1319C7.29294 30.338 6.91273 30.7226 6.71202 31.2146L0.147211 47.315C-0.267046 48.3309 0.222543 49.4944 1.2385 49.9088L6.6073 52.0979C6.85243 52.1979 7.10605 52.2452 7.35583 52.2452C8.141 52.2452 8.88667 51.7773 9.20098 51.0067L9.25034 50.8857L10.4882 51.3903C10.4889 51.3906 10.4896 51.391 10.4904 51.3912C11.6744 51.874 12.7652 52.5628 13.7094 53.4175C13.8811 53.573 14.0479 53.7339 14.2097 53.9C14.3714 54.0661 14.5278 54.2376 14.6789 54.414C14.7544 54.5021 14.8286 54.5917 14.9012 54.6823C16.277 56.3979 18.0806 57.7436 20.1167 58.5739L21.5093 59.1417H11.3085C10.5913 59.1417 10.0076 58.558 10.0076 57.8408V55.3116C10.0076 54.7596 9.56014 54.3121 9.00807 54.3121C8.456 54.3121 8.00852 54.7596 8.00852 55.3116V57.8408C8.00852 59.6604 9.48878 61.1408 11.3085 61.1408H26.4122L39.2885 66.391C39.7317 66.5718 40.1903 66.6575 40.6419 66.6574C42.0609 66.6574 43.4086 65.8118 43.9767 64.4187C44.2097 63.8474 44.2845 63.2502 44.2217 62.6761C44.8915 62.7722 45.5859 62.6841 46.2153 62.4123C46.855 62.136 47.3852 61.6959 47.7617 61.1406H66.7C68.5196 61.1406 70 59.6604 70 57.8407V12.0083C69.9998 12.0069 69.9997 12.0058 69.9997 12.0044ZM34.763 5.34186H43.2453L44.5565 11.0087H33.4517L34.763 5.34186ZM31.3998 11.0087H10.4716L12.6853 5.34186H32.7111L31.3998 11.0087ZM44.8145 27.1197H44.8144L40.0071 22.861C39.7212 22.6078 39.3627 22.4812 39.0044 22.4812C38.6459 22.4812 38.2873 22.6078 38.0014 22.861L33.1943 27.1197V13.0078H44.8145V27.1197ZM7.35337 50.2432L2.0018 48.0612L8.55964 31.9783L13.9112 34.1605L7.35337 50.2432ZM47.2868 56.2754L46.1396 55.8075C46.139 55.8072 46.1385 55.8071 46.1379 55.8068C46.1375 55.8067 46.1371 55.8064 46.1367 55.8063C46.1366 55.8063 46.1364 55.8062 46.1363 55.8062L34.189 50.9347C33.678 50.7264 33.0946 50.9717 32.8861 51.483C32.6776 51.9942 32.923 52.5775 33.4343 52.786L45.3819 57.6576C45.4318 57.678 45.4801 57.7005 45.5267 57.7253C45.5398 57.7322 45.552 57.7407 45.5648 57.748C45.5976 57.7666 45.6306 57.7852 45.6616 57.8058C45.6765 57.8158 45.6902 57.8273 45.7047 57.8377C45.7322 57.8573 45.7602 57.8768 45.7862 57.8981C45.8019 57.9109 45.8161 57.9253 45.8313 57.9387C45.8545 57.9593 45.8783 57.9793 45.9002 58.0012C45.9154 58.0162 45.9289 58.0328 45.9434 58.0483C45.9635 58.0699 45.9841 58.0911 46.003 58.1138C46.0174 58.1312 46.0299 58.1496 46.0436 58.1676C46.0607 58.19 46.0785 58.212 46.0942 58.2352C46.1075 58.2547 46.1188 58.2752 46.1311 58.295C46.1453 58.3179 46.1604 58.3405 46.1734 58.3642C46.1851 58.3855 46.195 58.4078 46.2058 58.4295C46.2172 58.4529 46.2297 58.4759 46.2401 58.4998C46.25 58.5228 46.2581 58.5465 46.267 58.5699C46.276 58.5936 46.2859 58.6168 46.2938 58.6409C46.3017 58.6651 46.3077 58.6898 46.3144 58.7143C46.3211 58.7385 46.3287 58.7623 46.3343 58.7868C46.3399 58.8115 46.3434 58.8367 46.3479 58.8615C46.3525 58.8864 46.3576 58.911 46.3609 58.9362C46.3642 58.9613 46.3654 58.9868 46.3675 59.0121C46.3695 59.0375 46.3726 59.0628 46.3734 59.0882C46.3742 59.1132 46.373 59.1385 46.3727 59.1637C46.3724 59.1897 46.3728 59.2156 46.3712 59.2418C46.3697 59.2665 46.366 59.2912 46.3633 59.316C46.3604 59.3427 46.3582 59.3693 46.3538 59.3958C46.3499 59.4202 46.3437 59.4444 46.3386 59.4687C46.3329 59.4956 46.3281 59.5226 46.3209 59.5494C46.3146 59.573 46.3061 59.5965 46.2986 59.6201C46.2901 59.6469 46.2823 59.6736 46.2723 59.7C46.2639 59.7182 46.2555 59.7365 46.2477 59.755C46.2459 59.7592 46.245 59.7636 46.2434 59.7677C46.0872 60.1282 45.799 60.4147 45.4226 60.5772C45.0084 60.7559 44.5341 60.7622 44.1212 60.5938L42.0044 59.7307C41.9946 59.7267 41.9846 59.724 41.9747 59.7203C41.9647 59.7158 41.9553 59.7106 41.9452 59.7065L32.2278 55.7442C31.7163 55.5359 31.1332 55.7811 30.9249 56.2925C30.7164 56.8037 30.9618 57.387 31.473 57.5955L41.1904 61.5578C41.2008 61.562 41.2113 61.565 41.2218 61.5688C41.2313 61.5729 41.24 61.578 41.2497 61.5818C42.0652 61.9145 42.4583 62.8485 42.1258 63.6641C41.7932 64.4798 40.8595 64.8731 40.0436 64.5401L26.9876 59.2166C26.9871 59.2163 26.9866 59.2161 26.986 59.2158L20.872 56.7227C19.7957 56.2838 18.7963 55.6748 17.9141 54.9254C17.3847 54.4757 16.8976 53.9758 16.4611 53.4316C16.0312 52.8956 15.5595 52.3956 15.052 51.9361C13.9354 50.9253 12.6455 50.1109 11.2456 49.5399C11.2455 49.5399 11.2453 49.5398 11.2452 49.5398L10.0057 49.0345L12.4744 42.9799L14.8074 37.2584L14.9795 37.3285C15.1415 37.3946 15.3726 37.4883 15.9944 37.5119C16.7712 37.547 18.0564 37.4659 20.3587 37.1407C21.9248 36.9195 23.8459 36.5995 26.0884 36.1869C26.1437 36.1768 26.1985 36.1667 26.2543 36.1564C26.3592 36.137 26.4651 36.1173 26.5715 36.0976C26.6542 36.0823 26.7373 36.0667 26.8211 36.051C26.9166 36.0331 27.0124 36.0152 27.1089 35.997C27.2113 35.9777 27.315 35.9582 27.4191 35.9384C27.5025 35.9225 27.5858 35.9068 27.67 35.8908C27.797 35.8666 27.9262 35.8418 28.0558 35.817C28.1225 35.8041 28.1886 35.7915 28.2558 35.7787C28.4544 35.7404 28.6555 35.7016 28.8603 35.6618C34.6381 34.538 40.2149 33.2871 40.4655 33.2308C40.4905 33.2256 40.5155 33.2226 40.5406 33.2189C41.1826 33.1239 41.8116 33.4952 41.9958 34.0943C42.0605 34.3049 42.068 34.5196 42.0272 34.7217C41.9377 35.1664 41.6145 35.5502 41.1525 35.6931L31.2429 38.7602C30.8394 38.8852 30.5581 39.2498 30.5399 39.6717C30.5215 40.0935 30.7701 40.4814 31.1611 40.6408L49.3042 48.0388C49.6993 48.1998 50.008 48.5051 50.1735 48.8985C50.3389 49.2918 50.3414 49.726 50.1802 50.121C50.019 50.5161 49.7138 50.8248 49.3205 50.9902C49.1239 51.0728 48.917 51.1147 48.7099 51.1159C48.7069 51.1159 48.7039 51.1155 48.7009 51.1155C48.6522 51.1155 48.6037 51.1136 48.5551 51.1091C48.5408 51.1077 48.5266 51.1047 48.5122 51.103C48.4751 51.0985 48.4381 51.0943 48.4013 51.0872C48.3781 51.0827 48.3551 51.0758 48.332 51.0704C48.3044 51.0638 48.2766 51.0582 48.2493 51.0501C48.221 51.0418 48.1932 51.0307 48.1653 51.0207C48.1432 51.0128 48.1206 51.0062 48.0988 50.9974L36.1501 46.1253C35.6389 45.9168 35.0557 46.1622 34.8472 46.6735C34.6387 47.1847 34.8841 47.7681 35.3954 47.9766L49.8814 53.8832C49.9803 53.9234 50.0737 53.9728 50.1607 54.0302C50.422 54.2024 50.6267 54.4479 50.7507 54.7429C50.8955 55.087 50.9154 55.4624 50.8102 55.8156C50.7951 55.866 50.7775 55.9161 50.7574 55.9654C50.7366 56.0164 50.7135 56.0658 50.6882 56.1134C50.6293 56.2241 50.5575 56.3242 50.4774 56.4154C50.4276 56.472 50.3744 56.5247 50.3178 56.5731C50.3088 56.5808 50.3006 56.5896 50.2914 56.5969C49.9267 56.8953 49.439 57.0235 48.9625 56.9272C48.8659 56.9077 48.7698 56.8799 48.6752 56.8414L47.2868 56.2754Z" fill="#0064D9"/>
</g>
<defs>
<clipPath id="clip0">
<rect width="70" height="70" fill="white"/>
</clipPath>
</defs>
</svg>
