<svg width="15" height="15" viewBox="0 0 15 15" fill="none" xmlns="http://www.w3.org/2000/svg">
<path d="M7.49998 3.75C5.42998 3.75 3.74997 5.43001 3.74997 7.50001C3.74997 9.57001 5.42998 11.25 7.49998 11.25C9.56998 11.25 11.25 9.56997 11.25 7.49997C11.25 5.42998 9.56998 3.75 7.49998 3.75Z" fill="#0064D9"/>
<path d="M7.49998 0C3.35626 0 0 3.35626 0 7.49998C0 11.6437 3.35626 15 7.49998 15C11.6437 15 15 11.6437 15 7.49998C15 3.35622 11.6437 0 7.49998 0ZM7.49998 13.5C4.185 13.5 1.49998 10.815 1.49998 7.49998C1.49998 4.18496 4.185 1.50001 7.49998 1.50001C10.815 1.50001 13.5 4.185 13.5 7.49998C13.5 10.815 10.815 13.5 7.49998 13.5Z" fill="#0064D9"/>
</svg>
