<svg width="30" height="30" viewBox="0 0 30 30" fill="none" xmlns="http://www.w3.org/2000/svg">
<path d="M15 15C16.2979 15 17.5667 14.6151 18.6459 13.894C19.7251 13.1729 20.5663 12.148 21.063 10.9489C21.5597 9.74972 21.6896 8.43022 21.4364 7.15722C21.1832 5.88422 20.5582 4.7149 19.6404 3.79711C18.7226 2.87933 17.5533 2.25432 16.2803 2.0011C15.0073 1.74788 13.6878 1.87784 12.4886 2.37454C11.2895 2.87124 10.2646 3.71238 9.54348 4.79157C8.82238 5.87077 8.4375 7.13956 8.4375 8.4375C8.4375 10.178 9.1289 11.8472 10.3596 13.0779C11.5903 14.3086 13.2595 15 15 15ZM15 3.75C15.9271 3.75 16.8334 4.02492 17.6042 4.53999C18.3751 5.05506 18.9759 5.78715 19.3307 6.64367C19.6855 7.5002 19.7783 8.4427 19.5974 9.35199C19.4166 10.2613 18.9701 11.0965 18.3146 11.7521C17.659 12.4076 16.8238 12.8541 15.9145 13.0349C15.0052 13.2158 14.0627 13.123 13.2062 12.7682C12.3496 12.4134 11.6176 11.8126 11.1025 11.0417C10.5874 10.2709 10.3125 9.3646 10.3125 8.4375C10.3125 7.1943 10.8064 6.00202 11.6854 5.12294C12.5645 4.24386 13.7568 3.75 15 3.75Z" fill="black"/>
<path d="M15.9375 16.875H14.0625C11.3275 16.875 8.70443 17.9615 6.77046 19.8955C4.83649 21.8294 3.75 24.4525 3.75 27.1875C3.75 27.4361 3.84877 27.6746 4.02459 27.8504C4.2004 28.0262 4.43886 28.125 4.6875 28.125H25.3125C25.5611 28.125 25.7996 28.0262 25.9754 27.8504C26.1512 27.6746 26.25 27.4361 26.25 27.1875C26.25 24.4525 25.1635 21.8294 23.2295 19.8955C21.2956 17.9615 18.6725 16.875 15.9375 16.875ZM5.68125 26.25C5.91178 24.1881 6.89392 22.2834 8.44001 20.8999C9.98611 19.5164 11.9878 18.751 14.0625 18.75H15.9375C18.0122 18.751 20.0139 19.5164 21.56 20.8999C23.1061 22.2834 24.0882 24.1881 24.3188 26.25H5.68125Z" fill="black"/>
</svg>
