<svg width="180" height="180" viewBox="0 0 180 180" fill="none" xmlns="http://www.w3.org/2000/svg">
<path d="M88.7171 86.7068C100.629 86.7068 110.942 82.4345 119.372 74.0053C127.798 65.5774 132.072 55.2653 132.072 43.352C132.072 31.4429 127.8 21.1295 119.37 12.6988C110.941 4.27231 100.628 0 88.7171 0C76.8038 0 66.4918 4.27231 58.0639 12.7002C49.636 21.1281 45.3623 31.4415 45.3623 43.352C45.3623 55.2653 49.636 65.5788 58.0639 74.0066C66.4945 82.4332 76.8079 86.7068 88.7171 86.7068ZM65.5236 20.1585C71.9904 13.6917 79.5765 10.5482 88.7171 10.5482C97.8564 10.5482 105.444 13.6917 111.912 20.1585C118.379 26.6267 121.524 34.2142 121.524 43.352C121.524 52.4927 118.379 60.0787 111.912 66.5469C105.444 73.0151 97.8564 76.1586 88.7171 76.1586C79.5792 76.1586 71.9932 73.0138 65.5236 66.5469C59.0554 60.0801 55.9106 52.4927 55.9106 43.352C55.9106 34.2142 59.0554 26.6267 65.5236 20.1585Z" fill="#0064D9"/>
<path d="M164.577 138.411C164.333 134.904 163.842 131.078 163.118 127.038C162.388 122.967 161.447 119.119 160.321 115.602C159.156 111.967 157.576 108.377 155.619 104.937C153.59 101.367 151.206 98.2576 148.531 95.6992C145.734 93.0226 142.309 90.8707 138.348 89.301C134.401 87.7396 130.027 86.9485 125.349 86.9485C123.511 86.9485 121.734 87.7025 118.302 89.9368C116.19 91.3142 113.719 92.9073 110.962 94.6692C108.604 96.1716 105.41 97.5792 101.464 98.8536C97.6149 100.099 93.7065 100.731 89.8476 100.731C85.9914 100.731 82.083 100.099 78.2309 98.8536C74.2896 97.5806 71.0939 96.1729 68.7401 94.6706C66.0086 92.9251 63.5367 91.3321 61.393 89.9355C57.9639 87.7011 56.1868 86.9472 54.3494 86.9472C49.6692 86.9472 45.2966 87.7396 41.3512 89.3024C37.3933 90.8693 33.967 93.0212 31.1668 95.7005C28.4917 98.2603 26.1076 101.368 24.0807 104.937C22.1265 108.377 20.5444 111.966 19.3799 115.604C18.2552 119.121 17.3145 122.967 16.5839 127.038C15.8588 131.072 15.3685 134.9 15.1254 138.415C14.8865 141.853 14.7656 145.43 14.7656 149.045C14.7656 158.441 17.7525 166.047 23.6426 171.657C29.4598 177.193 37.1558 180 46.5175 180H133.189C142.548 180 150.244 177.193 156.062 171.657C161.954 166.051 164.94 158.442 164.94 149.043C164.939 145.416 164.817 141.839 164.577 138.411ZM148.789 164.015C144.945 167.673 139.842 169.452 133.187 169.452H46.5175C39.8611 169.452 34.758 167.673 30.9155 164.016C27.1458 160.428 25.3139 155.529 25.3139 149.045C25.3139 145.672 25.4251 142.342 25.6476 139.145C25.8646 136.008 26.3081 132.562 26.9659 128.901C27.6155 125.285 28.4422 121.892 29.4255 118.82C30.369 115.874 31.6557 112.957 33.2515 110.148C34.7745 107.47 36.5268 105.172 38.4604 103.321C40.269 101.589 42.5487 100.172 45.2348 99.109C47.7191 98.1258 50.511 97.5874 53.5419 97.5064C53.9113 97.7028 54.5691 98.0777 55.6348 98.7726C57.8032 100.186 60.3026 101.798 63.0656 103.563C66.1803 105.548 70.193 107.342 74.9872 108.89C79.8885 110.474 84.8872 111.279 89.8489 111.279C94.8106 111.279 99.8108 110.474 104.709 108.891C109.508 107.341 113.519 105.548 116.638 103.56C119.465 101.753 121.895 100.187 124.063 98.7726C125.129 98.0791 125.787 97.7028 126.156 97.5064C129.188 97.5874 131.98 98.1258 134.466 99.109C137.151 100.172 139.43 101.591 141.239 103.321C143.172 105.171 144.925 107.468 146.448 110.149C148.045 112.957 149.333 115.876 150.275 118.819C151.26 121.895 152.088 125.287 152.736 128.9C153.392 132.568 153.837 136.015 154.054 139.146V139.149C154.278 142.333 154.391 145.662 154.392 149.045C154.391 155.531 152.559 160.428 148.789 164.015Z" fill="#0064D9"/>
</svg>
