<svg width="20" height="20" viewBox="0 0 20 20" fill="none" xmlns="http://www.w3.org/2000/svg">
<g clip-path="url(#clip0)">
<path d="M17.0557 13.8497C20.1172 10.6856 20.1171 5.53704 17.0557 2.37288C13.9942 -0.791285 9.01275 -0.791285 5.9513 2.37288C3.35402 5.05724 2.96066 9.04957 4.77017 12.1672C4.77017 12.1672 4.90014 12.3925 4.7246 12.5738C3.72312 13.6088 0.718522 16.7142 0.718522 16.7142C-0.0788532 17.5383 -0.268675 18.6906 0.438434 19.4215L0.560181 19.5472C1.26729 20.2782 2.38228 20.082 3.17959 19.2579C3.17959 19.2579 6.17784 16.1591 7.17725 15.1262C7.36121 14.9361 7.57921 15.0704 7.57921 15.0704C10.5956 16.9406 14.4584 16.5341 17.0557 13.8497ZM7.40092 12.3514C5.13878 10.0134 5.13884 6.20929 7.40099 3.8713C9.66313 1.53337 13.3439 1.53331 15.6059 3.8713C17.8681 6.20923 17.8681 10.0134 15.6059 12.3514C13.3438 14.6893 9.66313 14.6893 7.40092 12.3514Z" fill="white"/>
<path d="M7.90144 7.62988C7.79615 7.62988 7.68911 7.60849 7.58594 7.56346C7.17382 7.38318 6.981 6.89172 7.15543 6.46572C8.25172 3.78812 11.2513 2.53156 13.8419 3.66461C14.2541 3.84488 14.4469 4.33634 14.2725 4.76235C14.098 5.18835 13.6226 5.3875 13.2103 5.20729C11.4427 4.43428 9.39601 5.29163 8.64813 7.11845C8.51728 7.43795 8.21718 7.62988 7.90144 7.62988Z" fill="white"/>
</g>
<defs>
<clipPath id="clip0">
<rect width="19.3512" height="20" fill="white"/>
</clipPath>
</defs>
</svg>
