<svg width="25" height="25" viewBox="0 0 25 25" fill="none" xmlns="http://www.w3.org/2000/svg">
<g clip-path="url(#clip0)">
<path d="M9.71871 0C4.3529 0 0.00216675 4.35074 0.00216675 9.71658C0.00216675 15.0824 4.3529 19.4332 9.71875 19.4332C11.7821 19.4332 13.6957 18.7896 15.2686 17.6933L15.2698 17.6922L22.476 24.8985C22.6098 25.0322 22.8224 25.0356 22.9596 24.8985L24.9018 22.9563C25.0355 22.8225 25.0286 22.6008 24.9006 22.4728L17.6954 15.2676C18.7917 13.6935 19.4353 11.7799 19.4353 9.71658C19.4353 4.35074 15.0845 0 9.71871 0ZM9.71871 17.1469C5.61487 17.1469 2.28839 13.8204 2.28839 9.71658C2.28839 5.61275 5.61491 2.28626 9.71871 2.28626C13.8225 2.28626 17.149 5.61275 17.149 9.71658C17.149 13.8204 13.8225 17.1469 9.71871 17.1469Z" fill="black"/>
</g>
<defs>
<clipPath id="clip0">
<rect width="25" height="25" fill="white"/>
</clipPath>
</defs>
</svg>
