<svg width="20" height="20" viewBox="0 0 20 20" fill="none" xmlns="http://www.w3.org/2000/svg">
<path d="M20 4.72656H0V12.0833H2.34375V14.1016H1.17188V15.2734H3.51562V12.0833H4.6875V14.1016H10.7258C10.9677 14.7835 11.6189 15.2734 12.3828 15.2734C12.8327 15.2734 13.2434 15.1034 13.5547 14.8244C13.8659 15.1034 14.2767 15.2734 14.7266 15.2734C15.1764 15.2734 15.5872 15.1034 15.8984 14.8244C16.2097 15.1034 16.6204 15.2734 17.0703 15.2734C18.0396 15.2734 18.8281 14.4849 18.8281 13.5156C18.8281 12.9252 18.5352 12.4023 18.0875 12.0833H20V4.72656ZM10.625 12.9297H5.85938V12.0833H10.625V12.9297ZM12.3828 14.1016C12.0597 14.1016 11.7969 13.8387 11.7969 13.5156C11.7969 13.1925 12.0597 12.9297 12.3828 12.9297C12.7059 12.9297 12.9688 13.1925 12.9688 13.5156C12.9688 13.8387 12.7059 14.1016 12.3828 14.1016ZM14.7266 14.1016C14.4035 14.1016 14.1406 13.8387 14.1406 13.5156C14.1406 13.1925 14.4035 12.9297 14.7266 12.9297C15.0496 12.9297 15.3125 13.1925 15.3125 13.5156C15.3125 13.8387 15.0496 14.1016 14.7266 14.1016ZM17.0703 14.1016C16.7472 14.1016 16.4844 13.8387 16.4844 13.5156C16.4844 13.1925 16.7472 12.9297 17.0703 12.9297C17.3934 12.9297 17.6562 13.1925 17.6562 13.5156C17.6562 13.8387 17.3934 14.1016 17.0703 14.1016ZM18.8281 10.9114H1.17188V5.89844H18.8281V10.9114Z" fill="#0064D9"/>
</svg>
