<svg width="20" height="20" viewBox="0 0 20 20" fill="none" xmlns="http://www.w3.org/2000/svg">
<g clip-path="url(#clip0)">
<path d="M19.8768 4.16717C19.756 4.0016 19.5632 3.90363 19.3583 3.90363H4.91986C4.89188 3.90363 4.86395 3.90533 4.83705 3.90895L4.24284 2.19605C4.18125 2.0189 4.04564 1.87768 3.87135 1.80907L0.876647 0.632637C0.546598 0.503419 0.174163 0.665534 0.0445425 0.99518C-0.0848542 1.325 0.0772162 1.69766 0.407086 1.82728L3.12697 2.89576L6.45615 12.4919C6.3092 12.5431 6.18469 12.6559 6.12798 12.8136L5.1654 15.4874C5.10641 15.6514 5.13071 15.8335 5.23111 15.976C5.33137 16.1185 5.49442 16.2033 5.66853 16.2033H6.16284C5.85652 16.5442 5.66853 16.9931 5.66853 17.4867C5.66853 18.5483 6.53228 19.4119 7.59368 19.4119C8.65508 19.4119 9.51883 18.5483 9.51883 17.4867C9.51883 16.9931 9.33085 16.5442 9.02452 16.2033H13.2218C12.9153 16.5442 12.7273 16.9931 12.7273 17.4867C12.7273 18.5483 13.5909 19.4119 14.6525 19.4119C15.7141 19.4119 16.5776 18.5483 16.5776 17.4867C16.5776 16.9931 16.3897 16.5442 16.0834 16.2033H16.6846C16.98 16.2033 17.2193 15.9639 17.2193 15.6685C17.2193 15.3732 16.9799 15.1338 16.6846 15.1338H6.42943L7.02556 13.4779C7.10255 13.5103 7.18571 13.5295 7.27276 13.5295H16.6845C16.9635 13.5295 17.2104 13.3492 17.2954 13.0837L19.9693 4.74133C20.032 4.546 19.9975 4.33273 19.8768 4.16717ZM7.59368 18.3423C7.12179 18.3423 6.73808 17.9586 6.73808 17.4867C6.73808 17.0149 7.12179 16.6311 7.59368 16.6311C8.06557 16.6311 8.44929 17.0149 8.44929 17.4867C8.44929 17.9586 8.06557 18.3423 7.59368 18.3423ZM14.6525 18.3423C14.1806 18.3423 13.7968 17.9586 13.7968 17.4867C13.7968 17.0149 14.1806 16.6311 14.6525 16.6311C15.1243 16.6311 15.5081 17.0149 15.5081 17.4867C15.5081 17.9586 15.1243 18.3423 14.6525 18.3423ZM18.0162 6.63094H14.7416V5.18708H18.4789L18.0162 6.63094ZM17.0733 9.57211H14.7416V7.91434H17.6047L17.0733 9.57211ZM10.499 9.57211V7.91434H13.4582V9.57211H10.499ZM13.4582 10.8556V12.246H10.499V10.8556H13.4582ZM6.22658 7.91434H9.21573V9.57211H6.80177L6.22658 7.91434ZM10.499 6.63094V5.18708H13.4582V6.63094H10.499ZM9.21568 5.18708V6.63094H5.78119L5.2803 5.18708H9.21568ZM7.24712 10.8556H9.21568V12.246H7.72943L7.24712 10.8556ZM14.7416 12.2461V10.8557H16.6621L16.2166 12.2461H14.7416Z" fill="white"/>
</g>
<defs>
<clipPath id="clip0">
<rect width="20" height="20" fill="white"/>
</clipPath>
</defs>
</svg>
