<svg width="25" height="25" viewBox="0 0 25 25" fill="none" xmlns="http://www.w3.org/2000/svg">
<path d="M16.0156 6.25C12.5695 6.25 9.76562 9.05391 9.76562 12.5C9.76562 15.9461 12.5695 18.75 16.0156 18.75C19.4617 18.75 22.2656 15.9461 22.2656 12.5C22.2656 9.05391 19.4617 6.25 16.0156 6.25ZM16.0156 17.807L14.9449 16.7363L15.6277 15.5984C15.7551 15.6141 15.884 15.625 16.0156 15.625V17.807ZM16.0156 14.8438C14.723 14.8438 13.6719 13.7926 13.6719 12.5C13.6719 11.2074 14.723 10.1562 16.0156 10.1562C17.3082 10.1562 18.3594 11.2074 18.3594 12.5C18.3594 13.7926 17.3082 14.8438 16.0156 14.8438ZM13.807 10.2914L12.2629 8.74766H13.777L14.0992 10.0371C13.9973 10.1164 13.8984 10.2 13.807 10.2914ZM12.8906 12.5H10.7086L11.7793 11.4293L12.9172 12.1121C12.9016 12.2395 12.8906 12.3684 12.8906 12.5ZM13.807 14.7086L12.2633 16.2523V14.7383L13.5527 14.416C13.632 14.5184 13.7156 14.6172 13.807 14.7086ZM16.0156 7.19297L17.0863 8.26367L16.4035 9.40156C16.2762 9.38594 16.1473 9.375 16.0156 9.375V7.19297ZM18.2242 14.7086L19.768 16.2523H18.2539L17.9316 14.9629C18.034 14.8836 18.1328 14.8 18.2242 14.7086ZM19.1406 12.5H21.3227L20.252 13.5707L19.1141 12.8879C19.1297 12.7605 19.1406 12.6316 19.1406 12.5ZM18.2242 10.2914L19.768 8.74727V10.2613L18.4785 10.5836C18.3992 10.4816 18.3156 10.3828 18.2242 10.2914ZM17.6 9.81094C17.4695 9.73359 17.3336 9.66445 17.1918 9.60664L18.0703 8.14258L17.0617 7.13437C17.884 7.29453 18.6379 7.6418 19.2848 8.12656L17.6 9.81094ZM15.2344 9.47773C15.0859 9.51602 14.9398 9.56172 14.8008 9.6207L14.3871 7.96602H12.9605C13.6281 7.51484 14.4023 7.21328 15.2344 7.09336V9.47773ZM13.3266 10.9156C13.2492 11.0461 13.1801 11.182 13.1223 11.3238L11.6582 10.4453L10.65 11.4539C10.8102 10.6316 11.1574 9.87773 11.6422 9.23086L13.3266 10.9156ZM12.9934 13.2812C13.0316 13.4297 13.0773 13.5758 13.1363 13.7148L11.4816 14.1285V15.5551C11.0305 14.8875 10.7293 14.1133 10.6094 13.2812H12.9934ZM14.4313 15.1891C14.5617 15.2664 14.6977 15.3355 14.8395 15.3934L13.9609 16.8574L14.9695 17.8656C14.1473 17.7055 13.393 17.3582 12.7465 16.8734L14.4313 15.1891ZM16.7969 15.5223C16.9453 15.484 17.0914 15.4383 17.2305 15.3793L17.6441 17.034H19.0707C18.4031 17.4852 17.6289 17.7863 16.7969 17.9062V15.5223ZM18.7047 14.0844C18.782 13.9539 18.8512 13.818 18.909 13.6762L20.373 14.5547L21.3813 13.5461C21.2211 14.3684 20.8738 15.1227 20.3891 15.7691L18.7047 14.0844ZM19.0379 11.7188C18.9996 11.5703 18.9539 11.4242 18.8949 11.2852L20.5496 10.8715V9.44492C21.0008 10.1125 21.3023 10.8867 21.4223 11.7188H19.0379Z" fill="#0064D9"/>
<path d="M16.0156 10.9375C15.1539 10.9375 14.4531 11.6383 14.4531 12.5C14.4531 13.3617 15.1539 14.0625 16.0156 14.0625C16.8773 14.0625 17.5781 13.3617 17.5781 12.5C17.5781 11.6383 16.8773 10.9375 16.0156 10.9375ZM16.0156 13.2812C15.5848 13.2812 15.2344 12.9309 15.2344 12.5C15.2344 12.0691 15.5848 11.7188 16.0156 11.7188C16.4465 11.7188 16.7969 12.0691 16.7969 12.5C16.7969 12.9309 16.4465 13.2812 16.0156 13.2812Z" fill="#0064D9"/>
<path d="M8.20312 18.75C7.55703 18.75 7.03125 19.2758 7.03125 19.9219C7.03125 20.568 7.55703 21.0938 8.20312 21.0938C8.84922 21.0938 9.375 20.568 9.375 19.9219C9.375 19.2758 8.84922 18.75 8.20312 18.75ZM8.20312 20.3125C7.98789 20.3125 7.8125 20.1371 7.8125 19.9219C7.8125 19.7066 7.98789 19.5312 8.20312 19.5312C8.41836 19.5312 8.59375 19.7066 8.59375 19.9219C8.59375 20.1371 8.41836 20.3125 8.20312 20.3125Z" fill="#0064D9"/>
<path d="M24.6094 4.29688C24.6094 2.78906 23.3828 1.5625 21.875 1.5625H14.8438C13.3359 1.5625 12.1094 2.78906 12.1094 4.29688V4.84922C12.0188 4.8957 11.9289 4.94297 11.8402 4.99258C11.5563 4.56797 11.075 4.29688 10.5469 4.29688C9.68516 4.29688 8.98438 4.99766 8.98438 5.85938C8.98438 6.28359 9.15703 6.67617 9.45 6.96406C9.13125 7.3418 8.84492 7.74727 8.59375 8.17617V7.42188C8.59375 6.77578 8.06797 6.25 7.42188 6.25H6.64062C5.99453 6.25 5.46875 6.77578 5.46875 7.42188V8.59375H4.6875V5.85938C4.6875 5.21328 4.16172 4.6875 3.51562 4.6875H2.73438C2.08828 4.6875 1.5625 5.21328 1.5625 5.85938V8.59375C0.916406 8.59375 0.390625 9.11953 0.390625 9.76562V15.2344C0.390625 15.8805 0.916406 16.4062 1.5625 16.4062V19.9219C1.5625 20.568 2.08828 21.0938 2.73438 21.0938H3.51562C4.16172 21.0938 4.6875 20.568 4.6875 19.9219V16.4062H5.46875V19.9219C5.46875 21.4297 6.69531 22.6562 8.20312 22.6562H13.3531C13.5148 23.1098 13.9445 23.4375 14.4531 23.4375H15.2344C15.8805 23.4375 16.4062 22.9117 16.4062 22.2656V21.084C20.9641 20.8789 24.6094 17.1078 24.6094 12.5C24.6094 12.3691 24.6055 12.2391 24.5996 12.1094H24.6094V4.29688ZM10.5469 5.07812C10.8004 5.07812 11.0312 5.20469 11.1746 5.40391C10.748 5.6957 10.3492 6.025 9.98281 6.38672C9.84805 6.24531 9.76562 6.06094 9.76562 5.85938C9.76562 5.42852 10.116 5.07812 10.5469 5.07812ZM7.45898 11.7188H6.64062V12.5H7.42188C7.42188 13.0336 7.47344 13.5555 7.5668 14.0625H2.73438V10.9375H7.5668C7.51953 11.1941 7.48281 11.4547 7.45898 11.7188ZM6.25 7.42188C6.25 7.20664 6.42539 7.03125 6.64062 7.03125H7.42188C7.63711 7.03125 7.8125 7.20664 7.8125 7.42188V8.59375H6.25V7.42188ZM2.34375 5.85938C2.34375 5.64414 2.51914 5.46875 2.73438 5.46875H3.51562C3.73086 5.46875 3.90625 5.64414 3.90625 5.85938V8.59375H2.34375V5.85938ZM1.17188 15.2344V9.76562C1.17188 9.55039 1.34727 9.375 1.5625 9.375H8.0125C7.9125 9.62969 7.82461 9.89023 7.74922 10.1562H2.73438C2.30352 10.1562 1.95312 10.5066 1.95312 10.9375V14.0625C1.95312 14.4934 2.30352 14.8438 2.73438 14.8438H7.74961C7.825 15.1098 7.91289 15.3703 8.01289 15.625H1.5625C1.34727 15.625 1.17188 15.4496 1.17188 15.2344ZM3.90625 19.9219C3.90625 20.1371 3.73086 20.3125 3.51562 20.3125H2.73438C2.51914 20.3125 2.34375 20.1371 2.34375 19.9219V16.4062H3.90625V19.9219ZM6.25 19.9219V16.4062H8.36484C9.38125 18.3887 11.1441 19.9258 13.2812 20.6453V21.875H8.20312C7.12617 21.875 6.25 20.9988 6.25 19.9219ZM15.2344 22.6562H14.4531C14.2379 22.6562 14.0625 22.4809 14.0625 22.2656V20.8672C14.568 20.9852 15.0898 21.0598 15.625 21.084V22.2656C15.625 22.4809 15.4496 22.6562 15.2344 22.6562ZM16.0156 20.3125C11.7078 20.3125 8.20312 16.8078 8.20312 12.5C8.20312 8.19219 11.7078 4.6875 16.0156 4.6875C20.3234 4.6875 23.8281 8.19219 23.8281 12.5C23.8281 16.8078 20.3234 20.3125 16.0156 20.3125ZM16.0156 3.90625C14.9133 3.90625 13.8598 4.11719 12.8906 4.49688V4.29688C12.8906 3.21992 13.7668 2.34375 14.8438 2.34375H21.875C22.952 2.34375 23.8281 3.21992 23.8281 4.29688V8.92656C22.4691 5.96719 19.4793 3.90625 16.0156 3.90625Z" fill="#0064D9"/>
<path d="M22.2656 3.125C21.6195 3.125 21.0938 3.65078 21.0938 4.29688C21.0938 4.94297 21.6195 5.46875 22.2656 5.46875C22.9117 5.46875 23.4375 4.94297 23.4375 4.29688C23.4375 3.65078 22.9117 3.125 22.2656 3.125ZM22.2656 4.6875C22.0504 4.6875 21.875 4.51211 21.875 4.29688C21.875 4.08164 22.0504 3.90625 22.2656 3.90625C22.4809 3.90625 22.6562 4.08164 22.6562 4.29688C22.6562 4.51211 22.4809 4.6875 22.2656 4.6875Z" fill="#0064D9"/>
<path d="M3.51562 11.7188H4.29688V12.5H3.51562V11.7188Z" fill="#0064D9"/>
<path d="M5.07812 11.7188H5.85938V12.5H5.07812V11.7188Z" fill="#0064D9"/>
</svg>
