<svg width="20" height="20" viewBox="0 0 20 20" fill="none" xmlns="http://www.w3.org/2000/svg">
<path d="M17.8125 12.5H17.4991C17.7028 12.2299 17.8128 11.9008 17.8125 11.5625V8.4375C17.8128 8.09923 17.7028 7.77007 17.4991 7.5H17.5C17.9143 7.49953 18.3114 7.33475 18.6043 7.04183C18.8973 6.74891 19.062 6.35176 19.0625 5.9375V2.8125C19.062 2.39824 18.8973 2.00109 18.6043 1.70817C18.3114 1.41525 17.9143 1.25047 17.5 1.25H7.8125C7.39824 1.25047 7.00109 1.41525 6.70817 1.70817C6.41525 2.00109 6.25047 2.39824 6.25 2.8125V5H6.875V4.0625H18.4375V4.6875H8.125V5.3125H18.4375V5.9375C18.4372 6.15051 18.3645 6.35709 18.2313 6.52331C18.0981 6.68954 17.9123 6.80554 17.7045 6.85227L18.092 6.07727L17.533 5.79773L16.9944 6.875H16.4431L16.842 6.07727L16.283 5.79773L15.7444 6.875H15.1931L15.592 6.07727L15.033 5.79773L14.4944 6.875H13.9431L14.342 6.07727L13.783 5.79773L13.2444 6.875H12.5V7.5H13.2444L13.783 8.57727L14.342 8.29773L13.9431 7.5H14.4944L15.033 8.57727L15.592 8.29773L15.1931 7.5H15.7444L16.283 8.57727L16.842 8.29773L16.4545 7.52273C16.6623 7.56946 16.8481 7.68546 16.9813 7.85169C17.1145 8.01791 17.1872 8.22449 17.1875 8.4375V9.0625H13.75V9.6875H17.1875V10.3125H14.375V10.9375H17.1875V11.5625C17.1872 11.7755 17.1145 11.9821 16.9813 12.1483C16.8481 12.3145 16.6623 12.4305 16.4545 12.4773L16.842 11.7023L16.283 11.4227L15.7444 12.5H15.1931L15.592 11.7023L15.033 11.4227L14.4944 12.5H14.375V13.125H14.8069L15.3455 14.2023L15.9045 13.9227L15.5056 13.125H16.0569L16.5955 14.2023L17.1545 13.9227L16.7556 13.125H17.3069L17.8455 14.2023L18.4045 13.9227L18.017 13.1477C18.2248 13.1945 18.4106 13.3105 18.5438 13.4767C18.677 13.6429 18.7497 13.8495 18.75 14.0625V14.6875H13.75V15.3125H18.75V15.9375H13.125V16.5625H18.75V17.1875C18.7497 17.4005 18.677 17.6071 18.5438 17.7733C18.4106 17.9395 18.2248 18.0555 18.017 18.1023L18.4045 17.3273L17.8455 17.0477L17.3069 18.125H16.7556L17.1545 17.3273L16.5955 17.0477L16.0569 18.125H15.5056L15.9045 17.3273L15.3455 17.0477L14.8069 18.125H14.2556L14.6545 17.3273L14.0955 17.0477L13.5569 18.125H13.0056L13.4045 17.3273L12.8455 17.0477L12.3069 18.125H10.9375V18.75H17.8125C18.2268 18.7495 18.6239 18.5848 18.9168 18.2918C19.2098 17.9989 19.3745 17.6018 19.375 17.1875V14.0625C19.3745 13.6482 19.2098 13.2511 18.9168 12.9582C18.6239 12.6652 18.2268 12.5005 17.8125 12.5ZM6.875 3.4375V2.8125C6.8749 2.56984 6.96923 2.33667 7.13803 2.16234L7.533 2.95227L8.092 2.67273L7.69684 1.88239C7.7352 1.87755 7.77383 1.87508 7.8125 1.875H8.24436L8.783 2.95227L9.342 2.67273L8.94314 1.875H9.49436L10.033 2.95227L10.592 2.67273L10.1931 1.875H10.7444L11.283 2.95227L11.842 2.67273L11.4431 1.875H11.9944L12.533 2.95227L13.092 2.67273L12.6931 1.875H13.2444L13.783 2.95227L14.342 2.67273L13.9431 1.875H14.4944L15.033 2.95227L15.592 2.67273L15.1931 1.875H15.7444L16.283 2.95227L16.842 2.67273L16.4431 1.875H16.9944L17.533 2.95227L18.092 2.67273L17.7045 1.89773C17.9123 1.94446 18.0981 2.06046 18.2313 2.22669C18.3645 2.39291 18.4372 2.59949 18.4375 2.8125V3.4375H6.875Z" fill="#0064D9"/>
<path d="M13.75 12.1875C13.75 8.56892 10.8061 5.625 7.1875 5.625C3.56892 5.625 0.625 8.56892 0.625 12.1875C0.625 15.8061 3.56892 18.75 7.1875 18.75C10.8061 18.75 13.75 15.8061 13.75 12.1875ZM11.165 15.723L10.723 16.1649L11.1571 16.599C10.927 16.8062 10.6811 16.9953 10.4218 17.1644L10.1144 16.632L9.5731 16.9445L9.88111 17.478C9.60519 17.619 9.31859 17.738 9.02398 17.8339L8.86433 17.2381L8.26061 17.3999L8.42033 17.9959C8.11719 18.0602 7.80947 18.1006 7.5 18.1168V17.5H6.875V18.1168C6.56553 18.1006 6.25781 18.0602 5.95467 17.9959L6.11439 17.3999L5.51067 17.2381L5.35102 17.8339C5.05641 17.738 4.76981 17.619 4.49389 17.478L4.8019 16.9445L4.2606 16.632L3.95325 17.1644C3.69387 16.9953 3.44803 16.8062 3.21794 16.599L3.65196 16.165L3.21007 15.723L2.77601 16.1571C2.56878 15.927 2.37975 15.6811 2.21062 15.4218L2.74299 15.1144L2.43049 14.5731L1.89697 14.8811C1.75603 14.6052 1.63703 14.3186 1.54107 14.024L2.13688 13.8643L1.97513 13.2606L1.37907 13.4203C1.31476 13.1172 1.27435 12.8095 1.25821 12.5H1.875V11.875H1.25821C1.27435 11.5655 1.31476 11.2578 1.37907 10.9547L1.97514 11.1144L2.13688 10.5107L1.54107 10.351C1.63703 10.0564 1.75603 9.76981 1.89697 9.49389L2.4305 9.8019L2.743 9.2606L2.21062 8.95325C2.37974 8.69387 2.56877 8.44803 2.77599 8.21795L3.20999 8.65196L3.65196 8.21007L3.21793 7.77601C3.44801 7.56878 3.69386 7.37975 3.95325 7.21062L4.2606 7.74299L4.8019 7.43049L4.49389 6.89697C4.76981 6.75602 5.05641 6.63702 5.35102 6.54107L5.51067 7.13688L6.11439 6.97513L5.95467 6.37907C6.25781 6.31476 6.56553 6.27435 6.875 6.25821V6.875H7.5V6.25821C7.80947 6.27435 8.11719 6.31476 8.42033 6.37907L8.26061 6.97514L8.86433 7.13688L9.02398 6.54107C9.31859 6.63702 9.60519 6.75603 9.88111 6.89697L9.5731 7.4305L10.1144 7.743L10.4218 7.21063C10.6811 7.37975 10.927 7.56877 11.1571 7.77599L10.723 8.20999L11.1649 8.65196L11.599 8.21793C11.8062 8.44801 11.9952 8.69386 12.1644 8.95325L11.632 9.2606L11.9445 9.8019L12.478 9.49389C12.619 9.76981 12.738 10.0564 12.8339 10.351L12.2381 10.5107L12.3999 11.1144L12.9959 10.9547C13.0602 11.2578 13.1006 11.5655 13.1168 11.875H12.5V12.5H13.1168C13.1006 12.8095 13.0602 13.1172 12.9959 13.4203L12.3999 13.2606L12.2381 13.8643L12.8339 14.024C12.738 14.3186 12.619 14.6052 12.478 14.8811L11.9445 14.5731L11.632 15.1144L12.1644 15.4218C11.9953 15.6811 11.8062 15.927 11.599 16.1571L11.165 15.723Z" fill="#0064D9"/>
<path d="M10.625 12.1875C10.625 11.5076 10.4234 10.843 10.0457 10.2777C9.66796 9.71244 9.13109 9.27184 8.50297 9.01167C7.87485 8.75149 7.18368 8.68342 6.51687 8.81605C5.85006 8.94869 5.23755 9.27608 4.75681 9.75682C4.27606 10.2376 3.94867 10.8501 3.81604 11.5169C3.6834 12.1837 3.75147 12.8749 4.01165 13.503C4.27183 14.1311 4.71242 14.668 5.27772 15.0457C5.84301 15.4234 6.50762 15.625 7.18749 15.625C8.09886 15.624 8.97261 15.2615 9.61704 14.617C10.2615 13.9726 10.624 13.0989 10.625 12.1875ZM8.67538 12.6711C9.08449 12.4539 9.53505 12.3261 9.99724 12.2962C9.97789 12.8155 9.81416 13.3191 9.52442 13.7505C9.16813 13.4549 8.87873 13.087 8.67538 12.6711V12.6711ZM9.39559 10.4486C9.00462 10.696 8.56547 10.8573 8.10733 10.9217C8.02736 10.4654 8.04517 9.99727 8.15959 9.54833C8.64654 9.72908 9.07421 10.0406 9.39559 10.4486V10.4486ZM7.55271 9.3995C7.39129 10.0361 7.39342 10.7032 7.55889 11.3388C7.57631 11.4058 7.61543 11.465 7.67013 11.5073C7.72483 11.5496 7.79202 11.5726 7.86117 11.5726C7.86739 11.5726 7.87368 11.5725 7.87998 11.5721C8.53574 11.5335 9.171 11.3292 9.7264 10.9785C9.8317 11.1991 9.90754 11.4325 9.95198 11.6729C9.29645 11.7162 8.66251 11.9245 8.10909 12.2785C8.04806 12.3175 8.00248 12.3765 7.98012 12.4453C7.95777 12.5142 7.96003 12.5887 7.98652 12.6561C8.22615 13.2671 8.61635 13.8075 9.12084 14.2272C8.94367 14.3956 8.74541 14.5403 8.53102 14.6577C8.28727 14.0478 7.89338 13.5092 7.3859 13.0922C7.32997 13.0462 7.25983 13.0211 7.18744 13.0211C7.11505 13.0211 7.04492 13.0462 6.98901 13.0922C6.48119 13.5089 6.08737 14.0477 5.84438 14.658C5.63002 14.5406 5.43178 14.396 5.25461 14.2277C5.75857 13.8074 6.14852 13.2669 6.38846 12.6561C6.41495 12.5887 6.41721 12.5142 6.39486 12.4453C6.3725 12.3765 6.32692 12.3175 6.2659 12.2785C5.71265 11.9241 5.07856 11.7159 4.42294 11.6733C4.46734 11.4329 4.54314 11.1995 4.64839 10.9789C5.20429 11.3287 5.83942 11.5327 6.49505 11.5721C6.50134 11.5725 6.5076 11.5726 6.51382 11.5726C6.58297 11.5726 6.65017 11.5496 6.70487 11.5073C6.75957 11.465 6.79869 11.4057 6.81609 11.3388C6.98199 10.7033 6.98399 10.0361 6.82189 9.39955C7.0644 9.36684 7.3102 9.36682 7.55271 9.3995L7.55271 9.3995ZM4.85068 13.7506C4.56089 13.3193 4.39712 12.8156 4.37775 12.2963C4.84 12.3258 5.29063 12.4535 5.69961 12.671C5.496 13.0867 5.20668 13.4547 4.85068 13.7506V13.7506ZM6.21527 9.54838C6.33024 9.9972 6.34813 10.4654 6.26777 10.9217C5.80979 10.8565 5.37075 10.6953 4.97937 10.4487C5.30072 10.0407 5.72836 9.72914 6.21527 9.54838V9.54838ZM6.42289 14.8935C6.59366 14.4629 6.85433 14.0738 7.18749 13.752C7.52022 14.0741 7.78083 14.4632 7.95211 14.8935C7.45226 15.0355 6.92274 15.0355 6.42289 14.8935L6.42289 14.8935Z" fill="#0064D9"/>
<path d="M7.1875 12.5C7.36009 12.5 7.5 12.3601 7.5 12.1875C7.5 12.0149 7.36009 11.875 7.1875 11.875C7.01491 11.875 6.875 12.0149 6.875 12.1875C6.875 12.3601 7.01491 12.5 7.1875 12.5Z" fill="#0064D9"/>
<path d="M3.53226 13.9619L2.97012 14.2351C3.35438 15.0267 3.95372 15.6941 4.69955 16.161C5.44539 16.6279 6.30759 16.8753 7.1875 16.8751V16.2501C6.42486 16.2503 5.67756 16.0358 5.03114 15.6312C4.38471 15.2265 3.86527 14.648 3.53226 13.9619V13.9619Z" fill="#0064D9"/>
<path d="M10.8427 10.4132L11.4049 10.14C11.0206 9.34839 10.4213 8.68098 9.67545 8.21411C8.92961 7.74724 8.06741 7.49976 7.1875 7.5V8.125C7.95014 8.12478 8.69744 8.33928 9.34386 8.74394C9.99029 9.1486 10.5097 9.72708 10.8427 10.4132V10.4132Z" fill="#0064D9"/>
<path d="M3.76095 10.0043C4.16529 9.37056 4.73714 8.86111 5.41318 8.53235L5.13997 7.97021C4.34839 8.35447 3.68098 8.95381 3.21411 9.69964C2.74724 10.4455 2.49976 11.3077 2.5 12.1876H3.125C3.12403 11.414 3.34472 10.6563 3.76095 10.0043V10.0043Z" fill="#0064D9"/>
<path d="M11.25 12.1875C11.2502 12.9501 11.0357 13.6974 10.6311 14.3439C10.2264 14.9903 9.64792 15.5097 8.96182 15.8427L9.23503 16.4049C10.0266 16.0206 10.694 15.4213 11.1609 14.6754C11.6278 13.9296 11.8752 13.0674 11.875 12.1875H11.25Z" fill="#0064D9"/>
</svg>
