<svg width="20" height="20" viewBox="0 0 20 20" fill="none" xmlns="http://www.w3.org/2000/svg">
<g clip-path="url(#clip0)">
<path d="M3.99999 15C3.63331 15 3.33331 15.3 3.33331 15.6667C3.33331 16.0334 3.63331 16.3334 3.99999 16.3334C4.36667 16.3334 4.66667 16.0334 4.66667 15.6667C4.66667 15.3 4.36667 15 3.99999 15Z" fill="#0064D9"/>
<path d="M12.6667 15C12.3 15 12 15.3 12 15.6667C12 16.0334 12.3 16.3334 12.6667 16.3334C13.0334 16.3334 13.3334 16.0334 13.3334 15.6667C13.3334 15.3 13.0333 15 12.6667 15Z" fill="#0064D9"/>
<path d="M19.6667 11.3333H18.6667V10.3333C18.6667 10.1333 18.5334 10 18.3334 10C18.1334 10 18 10.1333 18 10.3333V11.3333H16.6667V3.3C16.6667 2.56668 16.1 2 15.4 2H1.3C0.56668 2 0 2.56668 0 3.3V11.3333V12V14.8333C0 15.4666 0.53332 16 1.16668 16H1.69023C1.84941 17.1389 2.8134 18 4.00004 18C5.18668 18 6.15066 17.1389 6.30984 16H10.3569C10.5161 17.1389 11.4801 18 12.6667 18C13.8534 18 14.8173 17.1389 14.9765 16H16.6667V12H19.6667C19.8667 12 20 11.8667 20 11.6667C20 11.4667 19.8667 11.3333 19.6667 11.3333ZM0.66668 8.66668H5.33336C5.53336 8.66668 5.66668 8.53336 5.66668 8.33336C5.66668 8.13336 5.53336 8.00004 5.33336 8.00004H0.66668V7.00004H4C4.2 7.00004 4.33332 6.86672 4.33332 6.66672C4.33332 6.46672 4.2 6.3334 4 6.3334H0.66668V3.3C0.66668 2.93332 0.933359 2.66668 1.3 2.66668H15.3667C15.7334 2.66668 16 2.96668 16 3.3V11.3333H0.66668V8.66668ZM4 17.3333C3.06668 17.3333 2.33332 16.6 2.33332 15.6666C2.33332 14.7333 3.06664 14 4 14C4.93332 14 5.66668 14.7333 5.66668 15.6666C5.66668 16.6 4.93332 17.3333 4 17.3333ZM12.6667 17.3333C11.7334 17.3333 11 16.6 11 15.6666C11 14.7333 11.7333 14 12.6667 14C13.6 14 14.3334 14.7333 14.3334 15.6666C14.3333 16.6 13.6 17.3333 12.6667 17.3333ZM16 15.3333H14.9764C14.8173 14.1945 13.8533 13.3333 12.6666 13.3333C12.6612 13.3333 12.6559 13.3337 12.6505 13.3337C12.6448 13.3337 12.6391 13.3333 12.6333 13.3333C11.4666 13.3333 10.5 14.2 10.3333 15.3333H6.3098C6.16055 14.2654 5.30352 13.4421 4.21887 13.3436C4.21094 13.3429 4.20289 13.3425 4.19492 13.3418C4.16762 13.3396 4.14035 13.3374 4.11277 13.3361C4.07539 13.3343 4.03781 13.3333 4 13.3333C3.96219 13.3333 3.92461 13.3343 3.88723 13.3361C3.85965 13.3374 3.83238 13.3396 3.80508 13.3418C3.79711 13.3425 3.78906 13.3429 3.78113 13.3436C2.69648 13.4421 1.83945 14.2654 1.6902 15.3333H1.16668C0.9 15.3333 0.66668 15.1 0.66668 14.8333V12H16V15.3333Z" fill="#0064D9"/>
</g>
<defs>
<clipPath id="clip0">
<rect width="20" height="20" fill="white"/>
</clipPath>
</defs>
</svg>
