<svg width="70" height="70" viewBox="0 0 70 70" fill="none" xmlns="http://www.w3.org/2000/svg">
<g clip-path="url(#clip0)">
<path d="M38.0078 52.0968V37.7344H55.3711C59.8943 37.7344 63.5742 34.0545 63.5742 29.5312V17.9032C67.2937 16.7374 70 13.259 70 9.16016C70 4.10922 65.8908 0 60.8398 0C55.7889 0 51.6797 4.10922 51.6797 9.16016C51.6797 13.259 54.386 16.7375 58.1055 17.9032V29.5312C58.1055 31.039 56.8788 32.2656 55.3711 32.2656H38.0078V17.9032C41.7272 16.7374 44.4336 13.259 44.4336 9.16016C44.4336 4.10922 40.3244 0 35.2734 0C30.2225 0 26.1133 4.10922 26.1133 9.16016C26.1133 13.259 28.8196 16.7375 32.5391 17.9032V32.2656H14.6289C13.1212 32.2656 11.8945 31.039 11.8945 29.5312V17.9032C15.614 16.7374 18.3203 13.259 18.3203 9.16016C18.3203 4.10922 14.2111 0 9.16016 0C4.10922 0 0 4.10922 0 9.16016C0 13.259 2.70635 16.7375 6.42578 17.9032V29.5312C6.42578 31.6306 7.21943 33.5475 8.52127 35C7.21943 36.4525 6.42578 38.3694 6.42578 40.4688V52.0968C2.70635 53.2625 0 56.741 0 60.8398C0 65.8908 4.10922 70 9.16016 70C14.2111 70 18.3203 65.8908 18.3203 60.8398C18.3203 56.741 15.614 53.2625 11.8945 52.0968V40.4688C11.8945 38.961 13.1212 37.7344 14.6289 37.7344H32.5391V52.0968C28.8196 53.2626 26.1133 56.741 26.1133 60.8398C26.1133 65.8908 30.2225 70 35.2734 70C40.3244 70 44.4336 65.8908 44.4336 60.8398C44.4336 56.741 41.7272 53.2625 38.0078 52.0968ZM60.8398 5.46875C62.8753 5.46875 64.5312 7.12469 64.5312 9.16016C64.5312 11.1956 62.8753 12.8516 60.8398 12.8516C58.8044 12.8516 57.1484 11.1956 57.1484 9.16016C57.1484 7.12469 58.8044 5.46875 60.8398 5.46875ZM35.2734 5.46875C37.3089 5.46875 38.9648 7.12469 38.9648 9.16016C38.9648 11.1956 37.3089 12.8516 35.2734 12.8516C33.238 12.8516 31.582 11.1956 31.582 9.16016C31.582 7.12469 33.238 5.46875 35.2734 5.46875ZM9.16016 5.46875C11.1956 5.46875 12.8516 7.12469 12.8516 9.16016C12.8516 11.1956 11.1956 12.8516 9.16016 12.8516C7.12469 12.8516 5.46875 11.1956 5.46875 9.16016C5.46875 7.12469 7.12469 5.46875 9.16016 5.46875ZM9.16016 64.5312C7.12469 64.5312 5.46875 62.8753 5.46875 60.8398C5.46875 58.8044 7.12469 57.1484 9.16016 57.1484C11.1956 57.1484 12.8516 58.8044 12.8516 60.8398C12.8516 62.8753 11.1956 64.5312 9.16016 64.5312ZM35.2734 64.5312C33.238 64.5312 31.582 62.8753 31.582 60.8398C31.582 58.8044 33.238 57.1484 35.2734 57.1484C37.3089 57.1484 38.9648 58.8044 38.9648 60.8398C38.9648 62.8753 37.3089 64.5312 35.2734 64.5312ZM70 54.0723C70 49.8883 66.5961 46.4844 62.4121 46.4844H53.3203V70H58.7891V61.6602H59.517L63.7641 70H69.9013L65.3521 61.0672C68.0802 59.9162 70 57.2143 70 54.0723ZM58.7891 51.9531H62.4121C63.5806 51.9531 64.5312 52.9037 64.5312 54.0723C64.5312 55.2408 63.5806 56.1914 62.4121 56.1914H58.7891V51.9531Z" fill="#0064D9"/>
</g>
<defs>
<clipPath id="clip0">
<rect width="70" height="70" fill="white"/>
</clipPath>
</defs>
</svg>
