<svg width="20" height="20" viewBox="0 0 20 20" fill="none" xmlns="http://www.w3.org/2000/svg">
<path d="M17.0711 2.92891C15.1823 1.0402 12.6711 0 10 0C7.32891 0 4.8177 1.0402 2.92891 2.92891C1.0402 4.8177 0 7.32891 0 10C0 12.6711 1.0402 15.1823 2.92891 17.0711C4.8177 18.9598 7.32891 20 10 20C12.6711 20 15.1823 18.9598 17.0711 17.0711C18.9598 15.1823 20 12.6711 20 10C20 7.32891 18.9598 4.8177 17.0711 2.92891ZM10 18.8281C5.13215 18.8281 1.17188 14.8679 1.17188 10C1.17188 5.13215 5.13215 1.17188 10 1.17188C14.8679 1.17188 18.8281 5.13215 18.8281 10C18.8281 14.8679 14.8679 18.8281 10 18.8281Z" fill="#0064D9"/>
<path d="M7.46644 11.4627C7.16082 10.9334 6.65082 10.614 6.06723 10.5866L2.33566 10.5859L2.44961 11.2684C2.60023 12.1705 2.90976 13.0318 3.36953 13.8281C3.8293 14.6245 4.42035 15.3231 5.12637 15.9046L5.66039 16.3446L7.51504 13.1323L7.52652 13.1071C7.76902 12.577 7.74601 11.947 7.46644 11.4627ZM6.47008 12.5984L5.35656 14.527C4.98164 14.1428 4.65598 13.7127 4.38433 13.2422C4.11269 12.7717 3.90301 12.2746 3.75777 11.7578H6.02351C6.20312 11.7699 6.34711 11.8677 6.45156 12.0487C6.53707 12.1966 6.54383 12.4195 6.47008 12.5984Z" fill="#0064D9"/>
<path d="M11.4701 13.7182L11.454 13.6957C11.1162 13.2206 10.5591 12.9255 10 12.9255C9.38871 12.9255 8.85714 13.2075 8.54164 13.6992L6.67531 16.9306L7.32328 17.1731C8.17984 17.4937 9.08043 17.6563 10 17.6563C10.9195 17.6563 11.8201 17.4937 12.6768 17.1731L13.3247 16.9306L11.4701 13.7182ZM10 16.4844C9.45668 16.4844 8.92136 16.4175 8.40121 16.2849L9.5341 14.3227C9.63437 14.1732 9.79105 14.0974 10 14.0974C10.1709 14.0974 10.3672 14.2029 10.4853 14.3562L11.5987 16.2849C11.0786 16.4175 10.5433 16.4844 10 16.4844Z" fill="#0064D9"/>
<path d="M13.955 10.5858L13.9275 10.5885C13.3472 10.6435 12.813 10.9785 12.5335 11.4626C12.2278 11.992 12.2063 12.5934 12.4743 13.1125L14.3396 16.3444L14.8736 15.9045C15.5796 15.323 16.1707 14.6243 16.6304 13.828C17.0902 13.0317 17.3997 12.1704 17.5504 11.2682L17.6643 10.5858H13.955ZM14.6434 14.5269L13.5105 12.5647C13.4312 12.4031 13.4439 12.2296 13.5484 12.0486C13.6338 11.9006 13.8233 11.7833 14.0152 11.7578H16.2422C16.0969 12.2745 15.8872 12.7716 15.6156 13.2421C15.3439 13.7126 15.0183 14.1427 14.6434 14.5269Z" fill="#0064D9"/>
<path d="M17.5504 8.73169C17.3998 7.8295 17.0903 6.96825 16.6305 6.17192C16.1707 5.3756 15.5797 4.67696 14.8737 4.0954L14.3396 3.65552L12.485 6.86782L12.4735 6.89298C12.231 7.42302 12.254 8.0531 12.5336 8.53731C12.8392 9.06669 13.3492 9.38603 13.9328 9.41345L17.6644 9.41411L17.5504 8.73169ZM13.9765 8.24224C13.7969 8.23013 13.6529 8.13235 13.5485 7.95138C13.463 7.80341 13.4562 7.5806 13.53 7.40169L14.6435 5.47306C15.0184 5.85724 15.3441 6.28739 15.6157 6.75786C15.8873 7.22837 16.097 7.72548 16.2423 8.24224H13.9765Z" fill="#0064D9"/>
<path d="M12.6767 2.82695C11.8202 2.50633 10.9196 2.34375 10 2.34375C9.08051 2.34375 8.17993 2.50633 7.32329 2.82695L6.67528 3.06949L8.52993 6.28184L8.54598 6.30441C8.88375 6.77945 9.44094 7.07453 10 7.07453C10.6113 7.07453 11.1429 6.79254 11.4584 6.30082L13.3247 3.06949L12.6767 2.82695ZM10.4659 5.67738C10.3656 5.82688 10.209 5.90266 10 5.90266C9.82915 5.90266 9.63282 5.79715 9.51473 5.64383L8.40125 3.7152C8.92137 3.58258 9.45672 3.51563 10 3.51563C10.5433 3.51563 11.0786 3.58258 11.5988 3.7152L10.4659 5.67738Z" fill="#0064D9"/>
<path d="M7.52562 6.88747L5.66039 3.65552L5.12637 4.09544C4.42035 4.67696 3.82926 5.3756 3.36949 6.17192C2.90973 6.96825 2.60023 7.8295 2.44957 8.73169L2.33566 9.41411H6.04492L6.0725 9.41149C6.65277 9.35645 7.18695 9.02149 7.46648 8.53735C7.77215 8.00798 7.79371 7.40661 7.52562 6.88747ZM6.4516 7.95138C6.36617 8.09935 6.17664 8.21665 5.9848 8.2422H3.75781C3.90305 7.72544 4.11273 7.22837 4.38437 6.75786C4.65601 6.28739 4.98168 5.85724 5.3566 5.47306L6.48945 7.43524C6.56879 7.59685 6.55609 7.7704 6.4516 7.95138Z" fill="#0064D9"/>
<path d="M10 8.24219C9.03074 8.24219 8.24219 9.03074 8.24219 10C8.24219 10.9693 9.03074 11.7578 10 11.7578C10.9693 11.7578 11.7578 10.9693 11.7578 10C11.7578 9.03074 10.9693 8.24219 10 8.24219ZM10 10.5859C9.67691 10.5859 9.41406 10.3231 9.41406 10C9.41406 9.67691 9.67691 9.41406 10 9.41406C10.3231 9.41406 10.5859 9.67691 10.5859 10C10.5859 10.3231 10.3231 10.5859 10 10.5859Z" fill="#0064D9"/>
</svg>
