<svg width="25" height="25" viewBox="0 0 25 25" fill="none" xmlns="http://www.w3.org/2000/svg">
<path d="M12.5 2.92969C12.2305 2.92969 12.0117 3.14844 12.0117 3.41797C12.0117 3.6875 12.2305 3.90625 12.5 3.90625C12.7695 3.90625 12.9883 3.6875 12.9883 3.41797C12.9883 3.14844 12.7695 2.92969 12.5 2.92969Z" fill="#0064D9"/>
<path d="M12.5 0C5.78374 0 0 5.72788 0 12.5C0 19.2335 5.74673 25 12.5 25C19.2304 25 25 19.2526 25 12.5C25 5.72993 19.2183 0 12.5 0ZM22.6123 17.8984L22.3404 17.7413C22.1069 17.6063 21.8083 17.6864 21.6734 17.9199C21.5385 18.1534 21.6185 18.4521 21.852 18.587L22.1049 18.7331C21.2189 20.0665 20.0665 21.219 18.733 22.105L18.5869 21.8521C18.452 21.6186 18.1534 21.5385 17.9198 21.6735C17.6863 21.8083 17.6063 22.107 17.7413 22.3405L17.8983 22.6124C16.3679 23.4559 14.688 23.9347 12.9883 24.0119V23.5352C12.9883 23.2655 12.7696 23.0469 12.5 23.0469C12.2304 23.0469 12.0117 23.2655 12.0117 23.5352V24.0118C10.2519 23.9341 8.57954 23.4399 7.09336 22.627L7.25889 22.3403C7.3937 22.1067 7.31362 21.8081 7.08008 21.6733C6.84639 21.5385 6.54785 21.6185 6.41309 21.8521L6.25689 22.1228C4.91689 21.2378 3.76226 20.0832 2.87734 18.7432L3.14795 18.587C3.38149 18.4522 3.46157 18.1536 3.32671 17.92C3.19189 17.6865 2.89331 17.6064 2.65977 17.7413L2.37305 17.9067C1.56006 16.4205 1.06582 14.7481 0.988184 12.9883H1.46484C1.73447 12.9883 1.95312 12.7697 1.95312 12.5C1.95312 12.2303 1.73447 12.0117 1.46484 12.0117H0.988037C1.06626 10.2887 1.55615 8.61074 2.38633 7.10098L2.65967 7.25879C2.89209 7.39302 3.19126 7.31465 3.32666 7.08008C3.46152 6.84653 3.38149 6.5479 3.14795 6.41309L2.89185 6.26523C3.76318 4.95112 4.90615 3.79639 6.26646 2.89409L6.41314 3.14805C6.54849 3.38232 6.84741 3.46104 7.08018 3.32661C7.31367 3.19175 7.39365 2.89307 7.25874 2.65957L7.10166 2.3877C8.63213 1.54409 10.312 1.06528 12.0117 0.988086V1.46484C12.0117 1.73452 12.2304 1.95312 12.5 1.95312C12.7696 1.95312 12.9883 1.73452 12.9883 1.46484V0.988086C14.6879 1.06528 16.3679 1.54409 17.8983 2.3877L17.7412 2.65957C17.6063 2.89307 17.6863 3.19175 17.9198 3.32661C18.1524 3.46099 18.4515 3.38237 18.5868 3.14805L18.7335 2.89409C20.0938 3.79639 21.2367 4.95107 22.1081 6.26519L21.8519 6.41314C21.6184 6.548 21.5384 6.84663 21.6733 7.08018C21.8086 7.31445 22.1076 7.39321 22.3404 7.25879L22.6136 7.10098C23.4438 8.61074 23.9336 10.2887 24.0119 12.0118H23.5352C23.2655 12.0118 23.0469 12.2304 23.0469 12.5C23.0469 12.7697 23.2655 12.9883 23.5352 12.9883H24.0119C23.9347 14.688 23.4559 16.368 22.6123 17.8984Z" fill="#0064D9"/>
<path d="M14.5492 3.15758C14.2862 3.09811 14.0247 3.263 13.9652 3.52604C13.9056 3.78903 14.0705 4.0505 14.3336 4.11002C18.1244 4.96813 21.0938 8.65342 21.0938 12.5C21.0938 12.7697 21.3124 12.9883 21.582 12.9883C21.8517 12.9883 22.0703 12.7697 22.0703 12.5C22.0703 8.09605 18.6911 4.09513 14.5492 3.15758Z" fill="#0064D9"/>
<path d="M12.5488 5.17637C8.47407 5.14971 5.17578 8.45552 5.17578 12.5001C5.17578 16.544 8.45986 19.8243 12.5 19.8243C16.5464 19.8243 19.8242 16.5348 19.8242 12.5001C19.8242 8.48633 16.5771 5.20269 12.5488 5.17637ZM17.0935 8.12407L14.6993 9.52066C14.4787 9.64932 14.2834 9.56465 14.2099 9.52236C14.1362 9.48003 13.9648 9.3541 13.9648 9.09917V6.3231C15.1598 6.60562 16.2423 7.22871 17.0935 8.12407ZM11.0352 6.3231V9.09917C11.0352 9.3541 10.8638 9.48003 10.7901 9.52236C10.7164 9.5647 10.5212 9.64927 10.3007 9.5207L7.90645 8.12407C8.75762 7.22876 9.84023 6.60557 11.0352 6.3231ZM6.15234 12.5001C6.15234 11.8677 6.24458 11.2489 6.42642 10.6532L8.86914 12.0781C9.08784 12.2057 9.11147 12.4157 9.11147 12.5001C9.11147 12.5845 9.08789 12.7945 8.86924 12.9221L6.42642 14.347C6.24458 13.7513 6.15234 13.1324 6.15234 12.5001ZM11.0352 18.677C9.84023 18.3945 8.75771 17.7714 7.90649 16.876L10.3007 15.4794C10.5213 15.3508 10.7165 15.4354 10.7901 15.4777C10.8638 15.5201 11.0352 15.646 11.0352 15.9009V18.677ZM13.9648 18.677V15.9009C13.9648 15.646 14.1362 15.5201 14.2099 15.4777C14.2836 15.4354 14.4788 15.3508 14.6993 15.4794L17.0936 16.876C16.2424 17.7713 15.1598 18.3944 13.9648 18.677ZM17.718 16.1096L15.1914 14.6358C14.7326 14.3682 14.1838 14.3664 13.7234 14.6309C13.2631 14.8954 12.9883 15.3701 12.9883 15.9009V18.8285C12.6638 18.8531 12.3361 18.8531 12.0117 18.8285V15.9009C12.0117 15.3701 11.7369 14.8954 11.2766 14.631C10.8162 14.3665 10.2674 14.3683 9.80864 14.6359L7.28208 16.1097C7.09565 15.8414 6.93052 15.5596 6.78804 15.2666L9.36133 13.7656C9.81636 13.5001 10.088 13.027 10.088 12.5001C10.088 11.9732 9.81641 11.5001 9.36123 11.2346L6.78799 9.73364C6.93047 9.44058 7.09556 9.15884 7.28203 8.89038L9.80864 10.3642C10.0395 10.4988 10.2931 10.5662 10.5468 10.5662C10.7973 10.5662 11.0479 10.5005 11.2766 10.3691C11.7369 10.1047 12.0117 9.62998 12.0117 9.09917V6.17153C12.1743 6.15913 12.3374 6.15239 12.5 6.15239C12.6626 6.15239 12.8258 6.15913 12.9883 6.17153V9.09917C12.9883 9.62998 13.2631 10.1047 13.7234 10.3691C13.9521 10.5005 14.2027 10.5662 14.4532 10.5662C14.7068 10.5662 14.9605 10.4989 15.1914 10.3642L17.7179 8.89038C17.9043 9.15874 18.0695 9.44048 18.212 9.73355L15.6387 11.2345C15.1836 11.5001 14.912 11.9731 14.912 12.5C14.912 13.0269 15.1836 13.5 15.6388 13.7655L18.212 15.2665C18.0695 15.5595 17.9044 15.8412 17.718 16.1096ZM16.1309 12.922C15.9122 12.7944 15.8885 12.5844 15.8885 12.5C15.8885 12.4156 15.9121 12.2056 16.1308 12.078L18.5736 10.6532C18.7554 11.2488 18.8477 11.8677 18.8477 12.5001C18.8477 13.1324 18.7554 13.7512 18.5736 14.3469L16.1309 12.922Z" fill="#0064D9"/>
<path d="M12.5 11.0352C11.6923 11.0352 11.0352 11.6923 11.0352 12.5C11.0352 13.3077 11.6923 13.9648 12.5 13.9648C13.3077 13.9648 13.9648 13.3077 13.9648 12.5C13.9648 11.6923 13.3077 11.0352 12.5 11.0352ZM12.5 12.9883C12.2308 12.9883 12.0117 12.7692 12.0117 12.5C12.0117 12.2308 12.2308 12.0117 12.5 12.0117C12.7692 12.0117 12.9883 12.2308 12.9883 12.5C12.9883 12.7692 12.7692 12.9883 12.5 12.9883Z" fill="#0064D9"/>
</svg>
